<svg xmlns="http://www.w3.org/2000/svg" xmlns:xlink="http://www.w3.org/1999/xlink" viewBox="0 0 405.02 64.84"><defs><clipPath id="a" transform="translate(-308.52 -480.08)"><rect x="308.44" y="479.05" width="407.12" height="65.89" style="fill:none"/></clipPath></defs><title>Delivery Hero logo</title><g style="clip-path:url(#a)"><path d="M379.78,482a27.92,27.92,0,0,0-31,7.31l-29.5,31.6c-.4.43-.21,1,.27,1l7.86.48c.63,0,.71.58.39,1l-19.21,20.72a.49.49,0,0,0,.53.78l27.43-8.67c.58-.2,1,.32.78.77l-3.67,6.49a.63.63,0,0,0,.63.84l39.55-8.81a27.89,27.89,0,0,0,5.9-53.51Zm4.39,28.53,0,0-8.83,3.6-.27.12-2.15,9.84a.52.52,0,0,1-.86.14l-6.44-7.61,0,0-36.3,15.57a.24.24,0,0,1-.24-.41l31.38-23.49-4-9.07a.53.53,0,0,1,.65-.73h0l9.62,2.37,7.46-6.64a.52.52,0,0,1,.84.33l.73,10,8.61,5a.53.53,0,0,1-.15,1Z" transform="translate(-308.52 -480.08)" style="fill:#d61f26;fill-rule:evenodd"/><polyline points="177.27 50.02 168.26 50.02 175.31 17 185.14 13.39 177.27 50.02" style="fill:#d61f26;fill-rule:evenodd"/><path d="M461.52,520.82a5.48,5.48,0,0,0-.09.87c0,1.47,1,2,3.68,2a27.91,27.91,0,0,0,7.76-1.29v6.75a31.79,31.79,0,0,1-9.65,1.42c-7.44,0-11-2-11-8.77s3.08-16.95,14.93-16.95c7.53,0,9.77,3.4,9.77,7,0,4.64-4,8.58-15.38,9m4.91-9.64c-2.16,0-3.4,1.79-3.9,3.85,4.27,0,5.56-1.33,5.56-2.44a1.53,1.53,0,0,0-1.66-1.42" transform="translate(-308.52 -480.08)" style="fill:#d61f26;fill-rule:evenodd"/><path d="M502.15,503.66c-3.07,0-5-2-5-4.68a5.24,5.24,0,0,1,5.55-5.51c3.13,0,5.05,2,5.05,4.64a5.23,5.23,0,0,1-5.56,5.56" transform="translate(-308.52 -480.08)" style="fill:#d61f26;fill-rule:evenodd"/><polyline points="187.31 25.59 196.59 25.59 191.9 49.65 182.53 49.65 185.83 32.76" style="fill:#d61f26;fill-rule:evenodd"/><path d="M531.83,505.67a203.13,203.13,0,0,1-11.25,24.06H509.09a113.77,113.77,0,0,1-1.93-24.06h9.37a111.42,111.42,0,0,0,.08,11.75c0,1,.14,2,.23,2.94h.05c.41-1,.87-1.93,1.28-2.94,1.6-4,3.07-8.26,4.18-11.75h9.46" transform="translate(-308.52 -480.08)" style="fill:#d61f26;fill-rule:evenodd"/><path d="M539.45,520.82a5.48,5.48,0,0,0-.1.87c0,1.47,1,2,3.67,2a27.87,27.87,0,0,0,7.76-1.29v6.75a31.78,31.78,0,0,1-9.64,1.42c-7.44,0-11-2-11-8.77s3.07-16.95,14.92-16.95c7.53,0,9.78,3.4,9.78,7,0,4.64-4,8.58-15.37,9m4.91-9.64c-2.15,0-3.4,1.79-3.91,3.85,4.28,0,5.56-1.33,5.56-2.44a1.52,1.52,0,0,0-1.65-1.42" transform="translate(-308.52 -480.08)" style="fill:#d61f26;fill-rule:evenodd"/><path d="M572.84,514.16a10.32,10.32,0,0,0-2.25-.28c-2.07,0-3.72,2.07-4.46,5.88l-1.92,10h-9.37l4.69-24.06h7l.23,3.21c2.16-2.66,3.86-4,6.48-4a8.59,8.59,0,0,1,2.15.18l-2.57,9.14" transform="translate(-308.52 -480.08)" style="fill:#d61f26;fill-rule:evenodd"/><path d="M602.13,505.67c-4.14,10.75-7.81,18.6-11.48,24-5.32,7.94-10,9.78-14.84,9.78a9.5,9.5,0,0,1-3.67-.74l1.47-6.94h3.21c1.61,0,2.29-.65,3.35-2.07-1.79-6.47-2.67-15.52-2.57-24.06H587a105.71,105.71,0,0,0,.09,11.62c0,1.05.13,2.07.22,3.08h0c.42-1,.87-1.93,1.29-3a117.6,117.6,0,0,0,4.09-11.71h9.38" transform="translate(-308.52 -480.08)" style="fill:#d61f26;fill-rule:evenodd"/><polyline points="329.62 49.65 319.74 49.65 322.08 37.53 313.72 37.53 311.38 49.65 301.51 49.65 307.75 17.6 317.63 17.6 315.38 29.04 323.74 29.04 325.99 17.6 335.86 17.6 329.62 49.65" style="fill:#d61f26;fill-rule:evenodd"/><path d="M652.69,520.82a5.46,5.46,0,0,0-.09.87c0,1.47,1,2,3.67,2a27.87,27.87,0,0,0,7.76-1.29v6.75a31.78,31.78,0,0,1-9.65,1.42c-7.44,0-11-2-11-8.77s3.08-16.95,14.92-16.95c7.53,0,9.79,3.4,9.79,7,0,4.64-4,8.58-15.39,9m4.91-9.64c-2.16,0-3.39,1.79-3.9,3.85,4.27,0,5.56-1.33,5.56-2.44a1.53,1.53,0,0,0-1.66-1.42" transform="translate(-308.52 -480.08)" style="fill:#d61f26;fill-rule:evenodd"/><path d="M686.07,514.16a10.18,10.18,0,0,0-2.25-.28c-2.06,0-3.72,2.07-4.45,5.88l-1.93,10h-9.36l4.68-24.06h7l.24,3.21c2.16-2.66,3.85-4,6.47-4a8.7,8.7,0,0,1,2.17.18l-2.58,9.14" transform="translate(-308.52 -480.08)" style="fill:#d61f26;fill-rule:evenodd"/><path d="M698,530.55c-7.3,0-10.88-3.12-10.88-9.37,0-6.94,3.44-16.35,15.57-16.35,7.26,0,10.88,3.21,10.88,9.37,0,7.07-3.45,16.34-15.57,16.34m3.49-18.32c-3.77,0-4.78,5.74-4.78,8.31,0,2.06.87,2.66,2.58,2.66,3.71,0,4.68-5.74,4.68-8.35,0-2-.82-2.62-2.48-2.62" transform="translate(-308.52 -480.08)" style="fill:#d61f26;fill-rule:evenodd"/><path d="M440.84,505.8l6.24-6c-2.44-1.47-5.78-2.14-9.95-2.14H425.2L419,529.73H431.4c14.46,0,20.24-10.1,20.24-20.62a11.64,11.64,0,0,0-1.72-6.61l-9.08,3.3m-8.75,16.3h-1.84l3.3-16.9h2.58c3.9,0,5.32,2.31,5.32,5.47,0,6.39-3.54,11.44-9.37,11.44" transform="translate(-308.52 -480.08)" style="fill:#d61f26;fill-rule:evenodd"/></g></svg>