<svg xmlns="http://www.w3.org/2000/svg" viewBox="0 0 202.02 36.53"><defs><style>.a{fill:#d70f64;}</style></defs><title>Foodpanda logo</title><path class="a" d="M452.39,505.1h2.9v-2.78c0-3.36,1.86-5.57,5.57-5.57l1.86.35v3.36l-2-.35c-1.16,0-1.62.7-1.62,1.86v3.13h3.71v3.36h-3.71v13.92h-3.71V508.46h-3Z" transform="translate(-410.99 -493.74)"/><path class="a" d="M472.22,504.75a9,9,0,1,1-9,9A9,9,0,0,1,472.22,504.75Zm0,14.73c3.48,0,5.33-2.55,5.33-5.68s-1.86-5.68-5.33-5.68-5.33,2.55-5.33,5.68S468.74,519.48,472.22,519.48Z" transform="translate(-410.99 -493.74)"/><path class="a" d="M491.82,504.75a9,9,0,1,1-9,9A9,9,0,0,1,491.82,504.75Zm0,14.73c3.48,0,5.33-2.55,5.33-5.68s-1.86-5.68-5.33-5.68-5.33,2.55-5.33,5.68S488.34,519.48,491.82,519.48Z" transform="translate(-410.99 -493.74)"/><path class="a" d="M520.12,522.38h-3.36l-.35-1.51-.23-.23-.23.23a6.76,6.76,0,0,1-4.75,1.86,9,9,0,0,1,0-18.09,6.56,6.56,0,0,1,4.75,1.86l.23.23.23-.23v-9.63h3.71ZM511.42,508c-3.48,0-5.33,2.55-5.33,5.68s1.86,5.68,5.33,5.68a5.4,5.4,0,0,0,5.33-5.68A5.47,5.47,0,0,0,511.42,508Z" transform="translate(-410.99 -493.74)"/><path class="a" d="M523.83,505.1h3.36l.35,1.51.23.23.23-.23a6.76,6.76,0,0,1,4.75-1.86,9,9,0,0,1,0,18.09A6.56,6.56,0,0,1,528,521l-.23-.23-.23.23v9.28h-3.6V505.1Zm8.58,14.38c3.48,0,5.33-2.55,5.33-5.68s-1.86-5.68-5.33-5.68a5.4,5.4,0,0,0-5.33,5.68A5.47,5.47,0,0,0,532.41,519.48Z" transform="translate(-410.99 -493.74)"/><path class="a" d="M550.73,511.59h3v-.81c0-2.09-1.39-3-3.36-3a3.24,3.24,0,0,0-3.25,2.32l-3.25-.7c.7-2.9,3.25-4.75,6.61-4.75,4.64,0,7,2.32,7,6.84v10.78h-3l-.35-2.32a6.09,6.09,0,0,1-5.45,2.55c-3.13,0-5.33-1.86-5.33-5.33s2.9-5.57,7.42-5.57Zm-1.62,7.89a4.38,4.38,0,0,0,3.13-1.16,4,4,0,0,0,1.39-3.25v-.35H550.5c-2.2,0-3.6,1-3.6,2.67A2,2,0,0,0,549.11,519.48Z" transform="translate(-410.99 -493.74)"/><path class="a" d="M560.71,505.1h3.36l.35,1.51.23.23.23-.23a5,5,0,0,1,4.06-1.86c4.41,0,7,2.9,7,7v10.67h-3.71V511.71c-.12-2.32-1.28-3.71-3.71-3.71a4.09,4.09,0,0,0-4.06,3.94v10.44h-3.71Z" transform="translate(-410.99 -493.74)"/><path class="a" d="M595.73,522.38h-3.36l-.35-1.51-.23-.23-.23.23a6.76,6.76,0,0,1-4.75,1.86,9,9,0,0,1,0-18.09,6.56,6.56,0,0,1,4.75,1.86l.23.23.23-.23v-9.63h3.71ZM587.15,508c-3.48,0-5.33,2.55-5.33,5.68s1.86,5.68,5.33,5.68a5.4,5.4,0,0,0,5.33-5.68A5.47,5.47,0,0,0,587.15,508Z" transform="translate(-410.99 -493.74)"/><path class="a" d="M606.28,511.59h3v-.81c0-2.09-1.39-3-3.36-3a3.24,3.24,0,0,0-3.25,2.32l-3.25-.7c.7-2.9,3.25-4.75,6.61-4.75,4.64,0,7,2.32,7,6.84v10.78h-3l-.35-2.32a6.09,6.09,0,0,1-5.45,2.55c-3.13,0-5.33-1.86-5.33-5.33s2.78-5.57,7.42-5.57Zm-1.62,7.89a4.38,4.38,0,0,0,3.13-1.16,4,4,0,0,0,1.39-3.25v-.35H606c-2.2,0-3.6,1-3.6,2.67A2,2,0,0,0,604.66,519.48Z" transform="translate(-410.99 -493.74)"/><path class="a" d="M426.76,516.93a3.64,3.64,0,0,0,3.83-3.36h-7.65A3.56,3.56,0,0,0,426.76,516.93Z" transform="translate(-410.99 -493.74)"/><path class="a" d="M439.64,500.93a3.81,3.81,0,0,0,1.39-3.13,4.06,4.06,0,0,0-4.17-4.06,4,4,0,0,0-3.48,1.86,15,15,0,0,0-6.73-1.51,15.91,15.91,0,0,0-6.73,1.51,4,4,0,0,0-3.48-1.86,4.13,4.13,0,0,0-4.17,4.06,4.38,4.38,0,0,0,1.39,3.13,15.12,15.12,0,0,0-2.67,8.7,15.66,15.66,0,0,0,31.31,0,14.86,14.86,0,0,0-2.67-8.7ZM426.76,524a14.45,14.45,0,0,1-14.38-14.38,14.87,14.87,0,0,1,2.44-8.12,13.63,13.63,0,0,1,5.68-4.87,14.79,14.79,0,0,1,12.52,0,15.38,15.38,0,0,1,5.68,4.87,14.87,14.87,0,0,1,2.44,8.12A14.45,14.45,0,0,1,426.76,524Z" transform="translate(-410.99 -493.74)"/><path class="a" d="M426.76,512.64c.23.12,2.67-.81,2.67-2,0-.7-2-.81-2.67-.81s-2.67.12-2.67.81C424,511.83,426.53,512.75,426.76,512.64Z" transform="translate(-410.99 -493.74)"/><path class="a" d="M435.81,502.9c-1.39-.93-4.41-1.39-5.57.12a2.37,2.37,0,0,0,0,3.25,12.15,12.15,0,0,1,2.9,4.52c.35,1.39.93,1.86,2,1.86s3.13-1.62,3.48-4.29A5.82,5.82,0,0,0,435.81,502.9Zm-3.13,3.36a.81.81,0,1,1,.81-.81A.79.79,0,0,1,432.68,506.26Z" transform="translate(-410.99 -493.74)"/><path class="a" d="M423.17,503c-1.16-1.51-4.17-1-5.57-.12a6,6,0,0,0-2.78,5.45c.23,2.67,2.32,4.29,3.48,4.29s1.62-.58,2-1.86a12.77,12.77,0,0,1,2.9-4.52A2.33,2.33,0,0,0,423.17,503Zm-2.2,3.25a.81.81,0,1,1,.81-.81A.79.79,0,0,1,421,506.26Z" transform="translate(-410.99 -493.74)"/></svg>