<?xml version="1.0" encoding="UTF-8" standalone="no"?>
<!-- Created with Inkscape (http://www.inkscape.org/) -->

<svg
   width="132.29167mm"
   height="58.256973mm"
   viewBox="0 0 132.29167 58.256973"
   version="1.1"
   id="svg1"
   inkscape:version="1.4 (86a8ad7, 2024-10-11)"
   sodipodi:docname="Hunger Station logo.svg"
   xmlns:inkscape="http://www.inkscape.org/namespaces/inkscape"
   xmlns:sodipodi="http://sodipodi.sourceforge.net/DTD/sodipodi-0.dtd"
   xmlns="http://www.w3.org/2000/svg"
   xmlns:svg="http://www.w3.org/2000/svg">
  <sodipodi:namedview
     id="namedview1"
     pagecolor="#ffffff"
     bordercolor="#000000"
     borderopacity="0.25"
     inkscape:showpageshadow="2"
     inkscape:pageopacity="0.0"
     inkscape:pagecheckerboard="0"
     inkscape:deskcolor="#d1d1d1"
     inkscape:document-units="mm"
     inkscape:zoom="0.69753788"
     inkscape:cx="287.43959"
     inkscape:cy="103.93701"
     inkscape:window-width="1920"
     inkscape:window-height="1001"
     inkscape:window-x="-9"
     inkscape:window-y="-9"
     inkscape:window-maximized="1"
     inkscape:current-layer="layer1" />
  <defs
     id="defs1" />
  <g
     inkscape:label="Layer 1"
     inkscape:groupmode="layer"
     id="layer1"
     transform="translate(-28.971856,-121.15484)">
    <g
       id="g4"
       transform="matrix(1.2136866,0,0,1.2136866,-14.721036,107.80431)">
      <path
         fill="#ffffff"
         d="m 108.707,24.019 c 0.436,-1.018 0.385,-2.19 -0.16,-3.173 l -2.39,-4.312 c 0.295,-0.359 0.566,-0.74 0.812,-1.145 0.909,-1.496 1.37,-3.157 1.37,-4.937 0,-2.837 -1.051,-5.333 -3.042,-7.22 -1.934,-1.832 -4.427,-2.8 -7.21,-2.8 H 76.6 c -1.443,0 -2.685,0.857 -3.255,2.09 C 72.32,1.764 71.167,1.16 69.894,0.72 67.79,-0.007 65.561,-0.185 63.27,0.193 60.902,0.584 58.847,1.481 57.124,2.861 56.638,1.45 55.304,0.432 53.73,0.432 h -4.705 c -1.424,0 -2.655,0.832 -3.236,2.039 L 45.436,1.965 C 44.764,1.005 43.666,0.432 42.496,0.432 H 31.263 c -1.018,0 -1.937,0.425 -2.59,1.107 C 28.019,0.857 27.1,0.432 26.083,0.432 H 21.35 c -0.533,0 -2.38,0.053 -2.868,0.053 h -4.678 c -1.017,0 -1.935,0.424 -2.589,1.106 C 10.563,0.909 9.645,0.485 8.628,0.485 H 3.923 c -1.983,0 -3.592,1.613 -3.592,3.603 v 18.456 c 0,1.387 0.783,2.589 1.928,3.19 -0.965,1.455 -1.466,3.17 -1.466,5.064 0,2.492 0.828,4.245 1.757,5.427 L 1.786,36.67 c -1.5,0.876 -2.162,2.703 -1.571,4.34 0.781,2.168 2.17,3.907 4.127,5.17 C 6.21,47.388 8.5,48 11.149,48 c 2.936,0 5.403,-0.78 7.334,-2.32 0.667,-0.532 1.237,-1.135 1.705,-1.801 v 0.12 c 0,1.99 1.608,3.603 3.591,3.603 0,0 6.46,0.05 6.95,0.05 l 5.208,-0.023 c 1.587,0 2.986,-1.045 3.44,-2.57 l 0.243,-0.763 0.549,-0.13 0.387,0.776 c 0.488,1.474 1.865,2.669 3.412,2.669 l 4.825,0.115 c 0.58,0 2.413,-0.056 2.828,-0.056 l 4.816,-0.068 c 1.379,0 2.574,-0.78 3.176,-1.923 0.602,1.143 1.798,1.923 3.177,1.923 h 4.73 c 1.6,0 2.955,-1.05 3.419,-2.501 2.361,1.924 5.17,2.899 8.365,2.899 2.996,0 5.65,-0.856 7.917,-2.548 0.557,1.266 1.817,2.15 3.284,2.15 h 4.73 c 1.424,0 2.655,-0.83 3.236,-2.036 l 0.351,0.503 c 0.673,0.96 1.77,1.533 2.94,1.533 h 3.647 c 1.983,0 3.591,-1.613 3.591,-3.603 V 25.444 c 0,-0.507 -0.105,-0.988 -0.293,-1.425"
         transform="translate(36,11)"
         id="path3" />
      <path
         fill="#6e3d2f"
         d="m 11.227,25.552 c 1.552,0 2.929,0.364 4.13,1.092 1.2,0.728 2.117,1.785 2.752,3.17 l -3.97,2.345 c -0.583,-1.386 -1.545,-2.078 -2.886,-2.078 -0.565,0 -0.992,0.116 -1.284,0.348 -0.29,0.232 -0.437,0.527 -0.437,0.884 0,0.41 0.216,0.76 0.648,1.045 0.431,0.286 1.272,0.616 2.523,0.99 l 2.158,0.783 c 0.557,0.202 1.163,0.52 1.816,0.955 0.654,0.434 1.14,0.992 1.458,1.674 0.318,0.683 0.477,1.484 0.477,2.405 0,1.83 -0.644,3.26 -1.932,4.29 C 15.391,44.485 13.688,45 11.57,45 9.612,45 7.988,44.583 6.7,43.748 5.411,42.913 4.511,41.786 4,40.364 l 4.05,-2.37 c 0.688,1.65 1.906,2.477 3.653,2.477 1.447,0 2.17,-0.414 2.17,-1.241 0,-0.546 -0.416,-0.986 -1.25,-1.32 C 12.27,37.763 11.496,37.515 10.3,37.167 8.606,36.67 7.265,35.973 6.276,35.076 5.288,34.179 4.794,32.931 4.794,31.333 c 0,-1.723 0.613,-3.117 1.84,-4.183 1.226,-1.066 2.757,-1.598 4.593,-1.598 z m 68.622,0 c 2.717,0 5.016,0.937 6.895,2.81 1.88,1.874 2.82,4.179 2.82,6.914 0,2.735 -0.94,5.04 -2.82,6.913 C 84.864,44.064 82.566,45 79.85,45 c -2.718,0 -5.017,-0.936 -6.896,-2.81 -1.88,-1.874 -2.82,-4.179 -2.82,-6.914 0,-2.735 0.94,-5.04 2.82,-6.914 1.88,-1.873 4.178,-2.81 6.896,-2.81 z m -36.67,0.405 6.193,18.84 h -4.928 l -0.711,-2.154 -0.804,-2.45 -5.487,0.99 -0.393,1.322 -0.681,2.293 h -5.182 l 5.966,-18.84 h 6.027 z m -9.637,-0.006 v 4.61 h -4.58 V 44.6 H 24.224 V 30.56 h -4.58 v -4.61 h 13.898 z m 27.978,0 v 4.61 H 56.94 V 44.6 H 52.202 V 30.56 h -4.58 V 25.95 H 61.52 Z m 6.523,0 v 18.65 H 63.304 V 25.95 h 4.739 z m 26.706,0 6.54,9.378 v -9.378 h 4.71 v 18.65 h -3.652 L 95.809,35.222 V 44.6 h -4.74 V 25.951 Z m -14.9,4.263 c -1.43,0 -2.621,0.475 -3.574,1.425 -0.953,0.95 -1.43,2.163 -1.43,3.637 0,1.474 0.477,2.686 1.43,3.636 0.953,0.95 2.144,1.426 3.574,1.426 1.43,0 2.62,-0.475 3.573,-1.426 0.953,-0.95 1.43,-2.162 1.43,-3.636 0,-1.474 -0.477,-2.687 -1.43,-3.637 -0.953,-0.95 -2.144,-1.425 -3.573,-1.425 z m -39.57,1.315 -1.505,5.15 2.887,-0.49 z M 26.531,4.434 v 12.073 c 0,1.564 0.865,2.345 2.595,2.345 1.73,0 2.595,-0.781 2.595,-2.345 V 4.434 h 4.74 V 16.96 c 0,1.973 -0.684,3.554 -2.052,4.744 -1.368,1.19 -3.13,1.786 -5.283,1.786 -2.154,0 -3.915,-0.595 -5.283,-1.786 -1.368,-1.19 -2.052,-2.771 -2.052,-4.744 V 4.434 Z m 42.72,0.092 c 1.545,0.537 2.823,1.378 3.834,2.525 L 69.487,9.997 C 69.027,9.479 68.415,9.104 67.653,8.869 66.89,8.636 66.064,8.593 65.176,8.739 c -1.447,0.24 -2.553,0.91 -3.322,2.01 -0.768,1.1 -1.032,2.385 -0.79,3.858 0.231,1.42 0.885,2.545 1.96,3.375 1.075,0.83 2.44,1.109 4.095,0.834 2.125,-0.352 3.396,-1.39 3.811,-3.116 l -4.442,0.736 -0.662,-4.05 9.224,-1.528 0.305,1.867 c 0.442,2.7 -0.041,5.026 -1.448,6.98 -1.407,1.952 -3.452,3.15 -6.135,3.595 -2.857,0.473 -5.354,-0.058 -7.493,-1.595 -2.14,-1.536 -3.43,-3.654 -3.871,-6.354 -0.442,-2.699 0.1,-5.13 1.625,-7.291 1.525,-2.161 3.637,-3.466 6.338,-3.913 1.707,-0.283 3.333,-0.157 4.88,0.38 z M 98.665,4.435 c 1.889,0 3.473,0.608 4.753,1.825 1.28,1.217 1.92,2.758 1.92,4.624 0,1.12 -0.283,2.145 -0.847,3.078 -0.566,0.933 -1.334,1.675 -2.304,2.225 L 106,23.09 h -5.084 L 97.685,17.067 95.99,17.354 V 23.09 H 91.25 V 4.435 Z m -55.69,0 6.541,9.38 V 4.435 H 54.23 V 23.09 h -3.655 l -6.54,-9.381 v 9.381 h -4.74 V 4.434 h 3.68 z m 45.95,0 v 4.45 H 81.88 v 2.585 h 6.382 v 4.398 H 81.88 v 2.745 h 7.176 V 23.09 H 77.141 V 4.434 H 88.925 Z M 9.045,4.488 v 7.855 l 5.187,-0.935 v -6.92 h 4.686 V 23.036 H 14.232 V 15.67 l -5.187,0.936 v 6.43 H 4.332 V 4.488 Z M 98.612,8.832 H 95.99 v 4.62 l 2.545,-0.32 c 0.46,-0.029 1.136,-0.285 1.507,-0.676 0.37,-0.39 0.556,-0.897 0.556,-1.519 0,-0.622 -0.186,-1.128 -0.556,-1.519 -0.37,-0.39 -0.848,-0.586 -1.43,-0.586 z"
         transform="translate(36,11)"
         id="path4" />
    </g>
  </g>
</svg>
