<?xml version="1.0" encoding="UTF-8"?>
<svg xmlns="http://www.w3.org/2000/svg" xmlns:xlink="http://www.w3.org/1999/xlink" width="349.59pt" height="104.32pt" viewBox="0 0 349.59 104.32" version="1.1">
<defs>
<clipPath id="clip1">
  <path d="M 338 23 L 349.589844 23 L 349.589844 71 L 338 71 Z M 338 23 "/>
</clipPath>
<clipPath id="clip2">
  <path d="M 0 0 L 96 0 L 96 104.320313 L 0 104.320313 Z M 0 0 "/>
</clipPath>
</defs>
<g id="surface1">
<!-- "MY" text - Changed to WHITE -->
<path style=" stroke:none;fill-rule:nonzero;fill:rgb(100%,100%,100%);fill-opacity:1;" d="M 175.15625 52.226563 L 162.886719 23.539063 L 173.792969 23.539063 L 181.238281 41.765625 L 188.679688 23.539063 L 199.503906 23.539063 L 185.984375 51.558594 L 185.984375 70.378906 L 175.15625 70.378906 "/>
<!-- "TEKSI" text - Stays GREEN -->
<path style=" stroke:none;fill-rule:nonzero;fill:rgb(52.198792%,72.198486%,14.099121%);fill-opacity:1;" d="M 202.871094 23.539063 L 232.957031 23.539063 L 232.957031 32.636719 L 221.832031 32.636719 L 221.832031 70.496094 L 210.996094 70.496094 L 210.996094 32.636719 L 198.515625 32.636719 "/>
<path style=" stroke:none;fill-rule:nonzero;fill:rgb(52.198792%,72.198486%,14.099121%);fill-opacity:1;" d="M 236.523438 23.539063 L 265.085938 23.539063 L 265.085938 32.636719 L 247.136719 32.636719 L 247.136719 42.128906 L 259.285156 42.128906 L 259.285156 51.234375 L 247.136719 51.234375 L 247.136719 60.996094 L 265.085938 60.996094 L 265.085938 70.496094 L 236.523438 70.496094 "/>
<path style=" stroke:none;fill-rule:nonzero;fill:rgb(52.198792%,72.198486%,14.099121%);fill-opacity:1;" d="M 268.484375 23.539063 L 279.378906 23.539063 L 279.378906 43.785156 L 279.492188 43.785156 L 291.585938 23.539063 L 302.664063 23.539063 L 292.238281 39.039063 L 302.453125 70.496094 L 291.78125 70.496094 L 285.308594 50.179688 L 285.246094 50.179688 L 279.378906 57.574219 L 279.378906 70.496094 L 268.484375 70.496094 "/>
<g clip-path="url(#clip1)" clip-rule="nonzero">
<path style=" stroke:none;fill-rule:nonzero;fill:rgb(52.198792%,72.198486%,14.099121%);fill-opacity:1;" d="M 338.703125 70.5 L 349.585938 70.5 L 349.585938 23.542969 L 338.703125 23.542969 Z M 338.703125 70.5 "/>
</g>
<!-- "M" letter shape - Changed to WHITE -->
<path style=" stroke:none;fill-rule:nonzero;fill:rgb(100%,100%,100%);fill-opacity:1;" d="M 127.46875 23.539063 L 137.449219 55.761719 L 135.597656 55.761719 L 145 23.539063 L 159.511719 23.539063 L 159.511719 70.40625 L 148.808594 70.40625 L 148.808594 37.179688 L 149.726563 37.179688 L 139.214844 70.40625 L 133.25 70.40625 L 122.757813 37.515625 L 123.660156 37.515625 L 123.660156 70.40625 L 112.972656 70.40625 L 112.972656 23.539063 "/>
<!-- "S" letter details - Stays GREEN -->
<path style=" stroke:none;fill-rule:nonzero;fill:rgb(52.198792%,72.198486%,14.099121%);fill-opacity:1;" d="M 335.019531 49.796875 C 334.015625 48.148438 332.816406 46.800781 331.429688 45.800781 C 330.070313 44.816406 328.671875 44.089844 327.277344 43.640625 C 325.886719 43.183594 324.832031 42.882813 324.078125 42.71875 C 321.546875 42.011719 319.453125 41.429688 317.878906 40.964844 C 316.339844 40.523438 315.109375 40.058594 314.246094 39.625 C 313.433594 39.203125 312.886719 38.765625 312.636719 38.304688 C 312.367188 37.828125 312.234375 37.183594 312.234375 36.390625 C 312.234375 35.515625 312.40625 34.800781 312.738281 34.253906 C 313.082031 33.683594 313.523438 33.195313 314.074219 32.8125 C 314.613281 32.4375 315.21875 32.175781 315.871094 32.015625 C 317.65625 31.597656 319.429688 31.746094 320.902344 32.078125 C 321.773438 32.273438 322.574219 32.609375 323.246094 33.070313 C 323.898438 33.53125 324.4375 34.164063 324.832031 34.972656 C 325.242188 35.78125 325.488281 36.84375 325.5625 38.109375 L 325.578125 38.542969 L 335.171875 38.542969 L 335.171875 38.085938 C 335.171875 35.429688 334.710938 33.140625 333.789063 31.261719 C 332.84375 29.394531 331.597656 27.832031 330.011719 26.625 C 328.4375 25.410156 326.625 24.539063 324.617188 24.007813 C 320.902344 23.019531 316.761719 22.839844 312.738281 24.042969 C 310.855469 24.59375 309.144531 25.464844 307.652344 26.625 C 306.171875 27.785156 304.941406 29.253906 304.015625 31.007813 C 303.082031 32.753906 302.613281 34.832031 302.613281 37.210938 C 302.613281 39.3125 302.996094 41.152344 303.722656 42.640625 C 304.464844 44.152344 305.429688 45.414063 306.621094 46.402344 C 307.777344 47.390625 309.144531 48.199219 310.621094 48.832031 C 312.097656 49.449219 313.59375 49.960938 315.125 50.378906 C 316.605469 50.839844 318.105469 51.257813 319.558594 51.644531 C 320.96875 52.011719 322.269531 52.445313 323.371094 52.933594 C 324.445313 53.398438 325.34375 54.003906 325.984375 54.707031 C 326.609375 55.371094 326.925781 56.238281 326.925781 57.34375 C 326.925781 58.359375 326.683594 59.207031 326.199219 59.859375 C 325.730469 60.527344 325.105469 61.0625 324.371094 61.441406 C 323.621094 61.84375 322.808594 62.109375 321.929688 62.242188 C 319.753906 62.597656 317.914063 62.511719 316.136719 62.007813 C 315.085938 61.707031 314.171875 61.253906 313.390625 60.648438 C 312.636719 60.042969 312.023438 59.253906 311.550781 58.265625 C 311.109375 57.289063 310.863281 56.078125 310.863281 54.640625 L 310.863281 54.183594 L 301.246094 54.183594 L 301.246094 54.640625 C 301.207031 57.445313 301.679688 59.925781 302.664063 61.984375 C 303.632813 64.050781 304.984375 65.765625 306.652344 67.101563 C 308.3125 68.4375 310.257813 69.414063 312.421875 70.046875 C 314.558594 70.664063 316.816406 70.972656 319.097656 70.972656 C 321.921875 70.972656 324.4375 70.601563 326.59375 69.878906 C 328.757813 69.160156 330.605469 68.113281 332.070313 66.804688 C 333.546875 65.484375 334.667969 63.902344 335.414063 62.09375 C 336.171875 60.277344 336.539063 58.300781 336.539063 56.203125 C 336.539063 53.617188 336.035156 51.472656 335.019531 49.796875 "/>
<!-- Icon outer green shape - Stays GREEN -->
<g clip-path="url(#clip2)" clip-rule="nonzero">
<path style=" stroke:none;fill-rule:nonzero;fill:rgb(52.198792%,72.198486%,14.099121%);fill-opacity:1;" d="M 32.949219 76.902344 C 13.359375 71.664063 0 56.671875 0 39.410156 C 0 17.679688 21.503906 -0.00390625 47.949219 -0.00390625 C 74.394531 -0.00390625 95.894531 17.679688 95.894531 39.410156 C 95.894531 56.671875 82.523438 71.664063 62.941406 76.902344 L 47.949219 104.320313 L 32.949219 76.902344 "/>
</g>
<!-- Icon inner black fill - Stays DARK -->
<path style=" stroke:none;fill-rule:nonzero;fill:rgb(11.399841%,11.399841%,10.598755%);fill-opacity:1;" d="M 88.683594 39.410156 C 88.683594 21.640625 70.4375 7.207031 47.949219 7.207031 C 25.449219 7.207031 7.203125 21.640625 7.203125 39.410156 C 7.203125 54.5 20.308594 67.164063 37.996094 70.679688 L 47.949219 87.328125 L 57.878906 70.679688 C 75.589844 67.164063 88.683594 54.5 88.683594 39.410156 "/>
<!-- Car and speed lines - Stay WHITE (visible against dark background) -->
<path style=" stroke:none;fill-rule:nonzero;fill:rgb(100%,100%,100%);fill-opacity:1;" d="M 35.15625 54.332031 C 32.980469 54.332031 31.070313 53.226563 29.953125 51.320313 L 40.363281 51.320313 C 39.25 53.226563 37.324219 54.332031 35.15625 54.332031 M 81.363281 44.695313 L 81.464844 44.535156 C 81.949219 43.8125 82.453125 42.539063 82.011719 40.679688 C 81.71875 39.390625 80.984375 38.375 79.980469 37.777344 L 79.800781 36.894531 C 79.429688 34.769531 77.449219 33.582031 71.71875 32.078125 C 69.679688 31.539063 67.710938 31.109375 66.582031 30.882813 L 61.097656 24.574219 C 60.582031 23.996094 59.839844 23.632813 59.042969 23.632813 L 58.371094 23.632813 C 57.925781 21.734375 56.820313 20.691406 56.585938 20.496094 C 56.089844 20.054688 55.457031 19.828125 54.804688 19.828125 L 51.78125 19.828125 C 51.128906 19.828125 50.484375 20.054688 50.011719 20.480469 C 49.773438 20.691406 48.648438 21.734375 48.191406 23.632813 L 38.859375 23.632813 C 38.046875 23.632813 37.3125 23.996094 36.796875 24.574219 L 31.523438 30.640625 L 26.84375 30.640625 C 26.125 30.640625 25.425781 30.929688 24.914063 31.457031 C 24.402344 31.976563 24.117188 32.675781 24.117188 33.414063 L 26.84375 33.382813 L 32.785156 33.382813 L 38.859375 26.378906 L 50.34375 26.378906 C 50.46875 25.992188 50.675781 25.355469 50.808594 24.574219 C 51.023438 23.214844 51.78125 22.5625 51.78125 22.5625 L 54.804688 22.5625 C 54.804688 22.5625 55.566406 23.214844 55.777344 24.574219 C 55.902344 25.355469 56.089844 25.992188 56.246094 26.378906 L 59.042969 26.378906 L 65.121094 33.382813 C 65.121094 33.382813 76.828125 35.625 77.105469 37.382813 L 77.589844 39.914063 L 77.722656 39.914063 C 78.066406 39.914063 79.074219 40.035156 79.347656 41.300781 C 79.824219 43.347656 78.347656 43.625 78.347656 43.625 L 78.738281 45.539063 C 78.738281 47.222656 77.644531 48.5625 76.269531 48.5625 L 71 48.5625 C 70.488281 52.160156 67.917969 54.332031 64.863281 54.332031 C 61.800781 54.332031 59.265625 52.160156 58.765625 48.5625 L 24.28125 48.597656 C 24.289063 50.078125 25.457031 51.257813 26.921875 51.320313 C 28.285156 54.789063 31.417969 57.078125 35.15625 57.078125 C 38.886719 57.078125 42.023438 54.789063 43.367188 51.320313 L 56.640625 51.320313 C 58.015625 54.789063 61.132813 57.078125 64.863281 57.078125 C 68.589844 57.078125 71.742188 54.789063 73.085938 51.320313 L 76.269531 51.320313 C 79.132813 51.320313 81.472656 48.710938 81.472656 45.539063 L 81.433594 44.996094 L 81.363281 44.695313 "/>
<!-- White speed lines (horizontal lines) - Stay WHITE -->
<path style=" stroke:none;fill-rule:nonzero;fill:rgb(100%,100%,100%);fill-opacity:1;" d="M 38.640625 44.363281 C 38.640625 43.589844 38.03125 42.992188 37.257813 42.992188 L 20.292969 42.992188 C 19.523438 42.992188 18.917969 43.589844 18.917969 44.363281 C 18.917969 45.125 19.523438 45.722656 20.292969 45.722656 L 37.257813 45.722656 C 38.03125 45.722656 38.640625 45.125 38.640625 44.363281 "/>
<path style=" stroke:none;fill-rule:nonzero;fill:rgb(100%,100%,100%);fill-opacity:1;" d="M 33.199219 38.785156 C 33.199219 38.027344 32.578125 37.417969 31.824219 37.417969 L 14.835938 37.417969 C 14.085938 37.417969 13.484375 38.027344 13.484375 38.785156 C 13.484375 39.546875 14.085938 40.164063 14.835938 40.164063 L 31.824219 40.164063 C 32.578125 40.164063 33.199219 39.546875 33.199219 38.785156 "/>
</g>
</svg>
