<?xml version="1.0" encoding="utf-8" standalone="no"?><svg xmlns="http://www.w3.org/2000/svg" width="200" height="45" fill="none"><path fill="#FA0050" fill-rule="evenodd" d="m28.276 0 2.393.024h.527c9.166 0 16.623 7.425 16.623 16.552 0 9.127-7.457 16.552-16.623 16.552H15.702l-2.272 8.23C13.102 42.61 11.713 45 8.823 45H1.11a.778.778 0 0 1-.612-.298.766.766 0 0 1-.14-.663L6.115 21.4a.774.774 0 0 1 .75-.582h24.332c2.294 0 4.153-1.851 4.153-4.135a4.144 4.144 0 0 0-4.152-4.135l-21.698-.04C3.373 12.506 0 9.884 0 5.123V.784C0 .35.352 0 .786 0h27.49ZM191.67 18.538l.352.014c1.286.08 2.586.695 3.418 1.699l.004-.018c.088-.488.228-1.188.228-1.188a.327.327 0 0 1 .321-.263h3.679a.326.326 0 0 1 .321.387l-2.826 14.137a.327.327 0 0 1-.321.263l-3.673.002a.325.325 0 0 1-.322-.38c.062-.33.157-.803.232-1.165-1.438 1.22-3.02 1.76-4.838 1.675-3.383-.16-5.602-2.427-5.637-5.81-.039-3.887 2.373-7.433 5.995-8.806a8.131 8.131 0 0 1 3.419-.533l-.352-.014Zm-3.409-5.5a.362.362 0 0 1 .293.578l-9.727 12.527-1.321 6.733a1.035 1.035 0 0 1-1.017.834h-3.777a.363.363 0 0 1-.358-.431l1.485-7.258-4.951-12.489a.362.362 0 0 1 .343-.482h4.67c.162 0 .304.106.35.261 0 0 2.602 7.408 2.702 8.086.371-.716 5.669-8.199 5.669-8.199.068-.1.182-.16.302-.16h5.337Zm-40.064 4.891c4.573 0 7.528 2.774 7.528 7.067 0 5.018-3.722 8.66-8.849 8.66-4.574 0-7.529-2.774-7.529-7.067 0-5.018 3.722-8.66 8.85-8.66Zm-8.55-5.282c.1 0 .195.045.259.122s.09.178.071.276l-4.003 19.882a.336.336 0 0 1-.33.27l-3.77.002a.338.338 0 0 1-.257-.119.328.328 0 0 1-.074-.272c.083-.435.158-.813.237-1.172-1.181 1.303-2.762 2.02-4.563 2.02-3.749 0-6.268-2.804-6.268-6.976 0-5.07 3.334-8.751 7.929-8.751 2.307 0 4.163 1.025 5.113 2.69.091-.502 1.55-7.701 1.55-7.701a.335.335 0 0 1 .329-.27h3.777Zm-26.539 0a.335.335 0 0 1 .329.397l-4.003 19.883a.334.334 0 0 1-.329.27l-3.771.002a.34.34 0 0 1-.257-.119.331.331 0 0 1-.073-.272c.083-.435.158-.813.236-1.172-1.18 1.303-2.761 2.02-4.562 2.02-3.749 0-6.268-2.804-6.268-6.976 0-5.07 3.334-8.751 7.928-8.751 2.308 0 4.164 1.025 5.113 2.69l.147-.745.073-.363c.43-2.148 1.33-6.593 1.33-6.593a.336.336 0 0 1 .33-.27h3.777Zm-27.288 5.267c4.246 0 6.883 2.345 6.883 6.118 0 .823-.138 1.605-.377 2.675a.334.334 0 0 1-.327.26l-10.577.035c.028 1.711 1.284 2.696 3.445 2.696 1.057 0 2.014-.24 3.029-.778a.323.323 0 0 1 .382.055l2.32 2.387a.325.325 0 0 1-.053.494c-1.863 1.239-3.632 1.785-5.77 1.785-4.72 0-7.651-2.697-7.651-7.037 0-5.036 3.657-8.69 8.696-8.69Zm76.521.036c1.853-.162 3.873.225 5.841 1.12a.33.33 0 0 1 .167.436l-1.306 2.922a.331.331 0 0 1-.19.176.33.33 0 0 1-.258-.011c-1.325-.631-2.675-.942-3.705-.852-1.037.091-.995.572-.981.73.025.283.082.433 1.167 1.025l1.85.93c1.986 1 2.861 2.146 3.02 3.957.264 3-1.656 4.903-5.269 5.218-2.411.21-4.765-.412-6.807-1.8a.333.333 0 0 1-.102-.438l1.646-2.89a.331.331 0 0 1 .207-.158.342.342 0 0 1 .258.04c1.673 1.028 3.237 1.512 4.521 1.4.421-.037 1.12-.19 1.066-.798-.023-.265-.102-.473-.94-.92l-2.054-1.071c-1.861-.983-2.838-2.287-2.988-3.987-.248-2.82 1.613-4.746 4.857-5.03Zm-43.049 1.598c.103 0 .201.041.267.112a.294.294 0 0 1 .079.186l-.006.068-2.639 13.034a.329.329 0 0 1-.271.242l-.069.007h-3.901a.364.364 0 0 1-.267-.113.294.294 0 0 1-.08-.186l.006-.068 2.64-13.034a.33.33 0 0 1 .271-.242l.069-.006h3.901Zm-49.774-6.9c4.56 0 7.283 2.36 7.283 6.314 0 4.51-3.272 7.314-8.539 7.314 0 0-4.415-.03-4.588-.03-.02.1-.754 4.007-1.15 5.768-.243 1.07-1.304 1.058-1.304 1.058l-1.944.013h-1.55a.344.344 0 0 1-.265-.125.348.348 0 0 1-.081-.282l3.97-19.754a.342.342 0 0 1 .337-.277h7.83Zm122.08 9.99c-.52 0-1.016.107-1.475.321a4.024 4.024 0 0 0-1.223.88 4.573 4.573 0 0 0-1.218 2.889c-.024.459.025.881.146 1.253.119.365.3.68.539.936.24.256.532.455.868.592.723.294 1.708.274 2.502-.055.425-.176.81-.424 1.144-.736.338-.316.627-.692.86-1.12.233-.429.398-.906.487-1.417.091-.542.091-1.04-.001-1.477a2.689 2.689 0 0 0-.495-1.106 2.416 2.416 0 0 0-.901-.708 2.908 2.908 0 0 0-1.233-.253Zm-61.633-.566c-.545 0-1.065.114-1.546.338a4.204 4.204 0 0 0-1.281.92 4.648 4.648 0 0 0-.891 1.366 4.814 4.814 0 0 0-.386 1.661c-.025.483.027.924.153 1.314a2.6 2.6 0 0 0 .565.981c.251.268.557.477.91.62.757.309 1.789.288 2.622-.057a3.973 3.973 0 0 0 1.198-.771 4.62 4.62 0 0 0 .901-1.174c.244-.449.416-.949.51-1.484.096-.569.096-1.09-.001-1.548a2.79 2.79 0 0 0-.519-1.16 2.527 2.527 0 0 0-.943-.74 3.06 3.06 0 0 0-1.292-.266Zm-26.604 0a3.63 3.63 0 0 0-1.545.338 4.22 4.22 0 0 0-1.282.92 4.805 4.805 0 0 0-1.276 3.026c-.025.484.026.925.153 1.315.124.383.315.713.565.981.251.268.557.477.909.62.758.309 1.79.288 2.622-.057a3.948 3.948 0 0 0 1.198-.771c.354-.331.658-.726.902-1.174.244-.449.416-.949.51-1.484.095-.569.095-1.09-.001-1.548-.095-.45-.27-.84-.519-1.16a2.538 2.538 0 0 0-.944-.74 3.056 3.056 0 0 0-1.292-.266Zm44.537.293c-2.213 0-3.819 1.66-3.819 3.946 0 1.822 1.157 2.91 3.096 2.91 2.213 0 3.818-1.66 3.818-3.947 0-1.822-1.157-2.91-3.095-2.91Zm-62.169-1.15c-1.876 0-3.136.86-3.834 2.526h.508c1.267.004 4.5.012 5.755.014l.456.001h.043c-.06-1.676-1.018-2.542-2.928-2.542Zm-20.165-4.353c-.023.143-.51 2.554-.807 4.028l-.08.393-.149.734h.083l3.808-.02c2.177 0 3.426-1.038 3.426-2.848 0-1.454-.949-2.254-2.672-2.254 0 0-3.419-.025-3.609-.033Zm53.134-4.812c1.508 0 2.394.846 2.369 2.264-.031 1.78-1.303 3.072-3.026 3.072-1.509 0-2.394-.847-2.37-2.265.032-1.78 1.305-3.071 3.027-3.071Z" clip-rule="evenodd"/></svg>