<svg version="1.2" xmlns="http://www.w3.org/2000/svg" viewBox="0 0 1919 597" width="1919" height="597">
	<style>
		.s0 { fill: #00a4dc } 
		.s1 { fill: #bed62f } 
		.s2 { fill: #202020 } 
		.s3 { fill: #f68b1f } 
	</style>
	<g id="Background">
		<path id="Path 0" fill-rule="evenodd" class="s0" d="m55 409h27l-0.07 47.5 2.29-2.92c1.25-1.61 3.86-3.9 5.78-5.09 1.92-1.19 5.75-2.92 8.5-3.84 3.09-1.03 8.16-1.67 13.25-1.66 5.64 0.01 9.91 0.62 13.5 1.94 2.96 1.08 7.65 4.07 10.75 6.85 3.11 2.78 6.88 7.49 8.66 10.82 1.74 3.24 3.97 8.6 4.95 11.9 1.31 4.38 1.8 9.38 1.8 18.5 0 9.12-0.49 14.12-1.8 18.5-0.98 3.3-3.21 8.66-4.95 11.9-1.78 3.33-5.55 8.04-8.66 10.82-3.21 2.88-7.79 5.76-11 6.94-4.57 1.68-7.27 1.96-16 1.63-8.42-0.32-11.57-0.89-15.9-2.85-2.97-1.34-6.91-4.13-12.1-9.94v10h-26zm34.64 59.82c-1.02 0.92-2.93 3.82-4.25 6.43-1.31 2.61-2.81 7.79-3.31 11.5-0.57 4.13-0.57 9.17 0 13 0.5 3.44 2.04 8.5 3.42 11.25 1.37 2.75 4.15 6.24 6.17 7.75 3.27 2.45 4.53 2.75 11.41 2.75 7.17 0 8.02-0.23 11.58-3.11 2.11-1.71 4.86-5.09 6.11-7.5 1.25-2.42 2.74-7.54 3.33-11.39 0.74-4.93 0.74-8.92 0-13.5-0.59-3.57-2.08-8.47-3.33-10.89-1.25-2.41-4-5.79-6.12-7.5-3.3-2.67-4.78-3.15-10.5-3.41-4.7-0.21-7.53 0.18-9.65 1.32-1.65 0.89-3.84 2.38-4.86 3.3zm124.36-25.49c12.41 0.24 16.6 0.7 21 2.29 3.03 1.09 7.24 3.31 9.36 4.93 2.12 1.62 4.82 4.52 6 6.45 2.05 3.36 2.16 4.96 2.7 39.5 0.47 30.89 0.79 36.53 3.94 43.5h-14c-11.56 0-14.09-0.26-14.5-1.5-0.28-0.83-0.5-2.4-0.5-3.5 0-1.81-0.49-1.68-5.25 1.46-2.89 1.9-7.95 4.15-11.25 5-3.3 0.85-10.05 1.56-15 1.57-5.93 0.01-10.85-0.59-14.44-1.76-3.47-1.13-7.22-3.41-10.32-6.27-2.99-2.76-5.52-6.24-6.55-9-1.07-2.86-1.67-7.42-1.66-12.5 0.02-6.56 0.48-8.9 2.56-13 1.5-2.96 4.34-6.36 6.97-8.32 2.44-1.83 6.69-3.99 9.44-4.81 2.75-0.81 11.07-2.36 18.5-3.44 7.43-1.08 14.85-2.27 16.5-2.64 1.65-0.36 4.24-1.71 5.75-2.98 2.16-1.81 2.75-3.17 2.75-6.31 0-3.01-0.72-4.8-2.92-7.25-2.76-3.07-3.36-3.27-10.75-3.57-4.31-0.18-8.96 0.15-10.33 0.73-1.37 0.58-3.48 2.08-4.67 3.32-1.19 1.25-2.57 3.84-3.95 9.27l-27.38 0.5 0.59-3.25c0.32-1.79 1.11-5.02 1.75-7.19 0.64-2.17 3.19-6.17 5.66-8.88 2.47-2.72 6.64-6.01 9.25-7.31 2.61-1.3 7.11-3.04 10-3.86 3.88-1.09 9.29-1.4 20.75-1.18zm-1.5 55.17c-5.5 0.9-11.91 2.5-14.25 3.57-2.34 1.06-5.01 3.17-5.94 4.68-0.94 1.51-1.72 4.37-1.75 6.35-0.03 1.98 0.62 4.85 1.44 6.37 0.82 1.51 2.74 3.38 4.25 4.14 1.51 0.77 5.68 1.39 9.25 1.39 3.57 0 7.96-0.6 9.75-1.33 1.79-0.74 4.49-2.76 6-4.5 1.51-1.74 3.23-4.86 3.82-6.92 0.58-2.06 0.91-6.79 0.73-10.51-0.28-5.7-0.56-6.61-1.81-5.82-0.82 0.53-5.99 1.69-11.49 2.58zm153.5-55.17c12.41 0.24 16.6 0.7 21 2.29 3.02 1.09 7.24 3.31 9.36 4.93 2.12 1.62 4.82 4.52 6 6.45 2.05 3.36 2.16 4.96 2.7 39.5 0.47 30.89 0.79 36.53 3.94 43.5h-14c-11.56 0-14.09-0.26-14.5-1.5-0.27-0.83-0.5-2.4-0.5-3.5 0-1.81-0.49-1.68-5.25 1.46-2.89 1.9-7.95 4.15-11.25 5-3.3 0.85-10.05 1.56-15 1.57-5.93 0.01-10.85-0.59-14.44-1.76-3.47-1.13-7.22-3.41-10.32-6.27-2.99-2.76-5.52-6.24-6.55-9-1.07-2.86-1.67-7.42-1.66-12.5 0.02-6.56 0.48-8.9 2.56-13 1.5-2.96 4.34-6.36 6.97-8.32 2.44-1.83 6.69-3.99 9.44-4.81 2.75-0.81 11.07-2.36 18.5-3.44 7.43-1.08 14.85-2.27 16.5-2.64 1.65-0.36 4.24-1.71 5.75-2.98 2.16-1.81 2.75-3.17 2.75-6.31 0-3.01-0.72-4.8-2.92-7.25-2.76-3.07-3.36-3.27-10.75-3.57-4.31-0.18-8.95 0.15-10.33 0.73-1.37 0.58-3.48 2.08-4.67 3.32-1.19 1.25-2.57 3.84-3.95 9.27l-27.38 0.5 0.59-3.25c0.32-1.79 1.11-5.02 1.75-7.19 0.64-2.17 3.18-6.17 5.66-8.88 2.48-2.72 6.64-6.01 9.25-7.31 2.61-1.3 7.11-3.04 10-3.86 3.88-1.09 9.29-1.4 20.75-1.18zm-1.5 55.17c-5.5 0.9-11.91 2.5-14.25 3.57-2.34 1.06-5.01 3.17-5.94 4.68-0.94 1.51-1.72 4.37-1.75 6.35-0.03 1.98 0.62 4.85 1.44 6.37 0.82 1.51 2.74 3.38 4.25 4.14 1.51 0.77 5.68 1.39 9.25 1.39 3.57 0 7.96-0.6 9.75-1.33 1.79-0.74 4.49-2.76 6-4.5 1.51-1.74 3.23-4.86 3.82-6.92 0.58-2.06 0.91-6.79 0.73-10.51-0.28-5.7-0.56-6.61-1.81-5.82-0.82 0.53-5.99 1.69-11.49 2.58zm213.75-55.4c7.76-0.07 12.35 0.4 16.5 1.69 3.16 0.99 7.77 2.96 10.25 4.39 2.48 1.42 6.5 4.78 8.95 7.45 2.45 2.68 5.24 6.67 6.21 8.87 0.97 2.2 2.12 6.14 3.34 13.53l-13.25-0.01c-11.73-0.02-13.31-0.22-13.81-1.77-0.31-0.96-1.33-3.27-2.25-5.13-0.93-1.85-3.04-4.32-4.69-5.49-2.2-1.56-4.86-2.21-10-2.45-6.4-0.29-7.41-0.06-11.75 2.75-3.49 2.25-5.41 4.47-7.24 8.32-1.36 2.89-2.88 8.18-3.38 11.75-0.51 3.77-0.52 9.13-0.01 12.75 0.48 3.44 1.48 7.71 2.21 9.5 0.73 1.79 2.69 4.83 4.35 6.75 1.65 1.92 4.32 4.1 5.91 4.83 1.79 0.82 5.47 1.2 9.58 1 4.87-0.24 7.43-0.9 9.5-2.45 1.56-1.17 3.63-3.19 4.6-4.5 0.98-1.31 2.4-4.18 4.54-10.38l26.19-0.5-0.6 2.75c-0.33 1.51-1.05 4.55-1.59 6.75-0.55 2.2-2.19 6.19-3.65 8.87-1.46 2.68-4.8 6.84-7.41 9.25-2.61 2.41-7.79 5.83-11.5 7.6-6.26 2.98-7.65 3.24-19.25 3.6-10.9 0.34-13.33 0.1-19-1.82-3.58-1.21-8.95-3.85-11.95-5.85-3.06-2.05-7.36-6.28-9.81-9.65-2.39-3.3-5.23-8.36-6.3-11.25-1.07-2.89-2.4-8.51-2.95-12.5-0.71-5.04-0.69-9.84 0.07-15.75 0.6-4.68 1.86-10.52 2.8-13 0.94-2.48 2.88-6.52 4.31-9 1.44-2.48 4.8-6.56 7.47-9.09 2.67-2.52 7.22-5.78 10.11-7.25 2.89-1.46 6.94-3.06 9-3.56 2.06-0.49 8.59-0.94 14.5-1zm105.25 0.18c11.09 0.25 12.49 0.51 18.5 3.4 4.29 2.06 8.38 5.11 12.02 8.97 3.04 3.22 6.72 8.33 8.19 11.35 1.46 3.02 3.36 8.43 4.21 12 0.85 3.57 1.56 9.54 1.58 20l-68.5-0.03 0.75 4.51c0.41 2.49 1.6 6.21 2.64 8.27 1.05 2.06 2.73 4.51 3.75 5.44 1.02 0.93 3.55 2.39 5.61 3.25 2.07 0.86 6.56 1.55 10 1.54 3.86-0.02 7.78-0.72 10.25-1.84 2.2-1 5.46-3.46 10.5-9.14h11.5c8.52 0 11.51 0.32 11.52 1.25 0.01 0.69-1.31 3.95-2.93 7.25-1.63 3.3-4.72 8.02-6.88 10.5-2.16 2.48-6.35 5.82-9.32 7.43-2.96 1.6-7.64 3.51-10.39 4.23-2.75 0.73-9.61 1.32-15.25 1.33-7.07 0.01-12.03-0.55-16-1.78-3.16-0.99-7.77-2.96-10.25-4.39-2.48-1.43-6.56-4.79-9.09-7.46-2.52-2.67-5.78-7.22-7.25-10.11-1.46-2.89-3.33-8.06-4.15-11.5-0.81-3.44-1.49-10.07-1.5-14.75-0.01-4.68 0.66-11.09 1.48-14.25 0.83-3.16 2.71-8.11 4.17-11 1.46-2.89 4.95-7.66 7.75-10.61 2.8-2.94 7.11-6.53 9.59-7.96 2.48-1.43 6.98-3.4 10-4.39 4.29-1.39 8.13-1.72 17.5-1.51zm-18.17 26.26c-1.22 1.63-2.92 4.65-3.78 6.71-0.85 2.06-1.55 4.43-1.55 5.25 0 1.28 2.94 1.5 20.5 1.5h20.5c-0.99-4.26-1.95-6.85-2.76-8.5-0.81-1.65-2.43-4.06-3.61-5.35-1.17-1.28-3.37-2.97-4.88-3.75-1.53-0.78-5.53-1.38-9-1.36-3.44 0.02-7.81 0.6-9.73 1.29-1.91 0.68-4.47 2.58-5.69 4.21z"/>
		<path id="Path 1" fill-rule="evenodd" class="s1" d="m1527 409h27v131h-26v-10l-3.25 3.63c-1.79 2-5.5 4.81-8.25 6.25-4.62 2.42-5.95 2.62-17.5 2.62-11.25 0-13-0.25-17.5-2.46-2.75-1.35-7.5-4.95-10.56-8-3.06-3.05-6.77-8.02-8.23-11.04-1.46-3.02-3.42-8.42-4.36-12-1.06-4.07-1.7-10.42-1.72-17-0.02-8.17 0.48-12.16 2.28-18 1.26-4.13 3.49-9.5 4.94-11.95 1.46-2.45 4.68-6.43 7.15-8.85 2.47-2.41 6.97-5.58 10-7.03 4.56-2.19 7.21-2.7 15.5-3 8.53-0.3 10.88-0.02 16 1.92 3.46 1.31 7.82 4 14.58 10.41zm-36.78 61.76c-1.8 2.06-4.02 5.99-4.93 8.74-0.98 2.97-1.65 8.24-1.65 13 0 5.19 0.66 9.93 1.87 13.5 1.03 3.02 3.47 7.24 5.43 9.37 1.96 2.13 4.8 4.49 6.31 5.25 1.52 0.76 5.23 1.38 8.25 1.38 3.03 0 6.97-0.6 8.75-1.34 1.79-0.74 4.72-2.99 6.5-5 1.89-2.12 3.95-6.08 4.9-9.41 0.99-3.45 1.62-9.15 1.58-14.25-0.04-5.89-0.68-10.19-2.07-14-1.22-3.32-3.43-6.79-5.59-8.75-1.96-1.79-4.69-3.7-6.07-4.25-1.37-0.55-5.08-1-8.25-0.99-3.16 0-7.1 0.68-8.75 1.51-1.65 0.83-4.47 3.19-6.28 5.24zm-193.72-27.48c11.1 0.25 12.49 0.51 18.5 3.4 4.29 2.06 8.38 5.11 12.03 8.97 3.03 3.22 6.72 8.33 8.18 11.35 1.46 3.02 3.36 8.43 4.21 12 0.86 3.57 1.56 9.54 1.58 20l-68.5-0.03 0.75 4.51c0.42 2.49 1.61 6.21 2.65 8.27 1.04 2.06 2.73 4.51 3.75 5.44 1.02 0.93 3.54 2.39 5.6 3.25 2.07 0.86 6.56 1.55 10 1.54 3.86-0.02 7.78-0.72 10.25-1.84 2.2-1 5.47-3.46 10.5-9.14h11.5c8.53 0 11.51 0.32 11.52 1.25 0.01 0.69-1.3 3.95-2.93 7.25-1.62 3.3-4.72 8.02-6.87 10.5-2.16 2.48-6.35 5.82-9.32 7.43-2.97 1.6-7.65 3.51-10.4 4.23-2.75 0.73-9.61 1.32-15.25 1.33-7.07 0.01-12.03-0.55-16-1.78-3.16-0.99-7.77-2.96-10.25-4.39-2.47-1.43-6.56-4.79-9.08-7.46-2.53-2.67-5.79-7.22-7.25-10.11-1.47-2.89-3.33-8.06-4.15-11.5-0.82-3.44-1.5-10.07-1.51-14.75-0.01-4.68 0.66-11.09 1.49-14.25 0.83-3.16 2.7-8.11 4.16-11 1.46-2.89 4.95-7.66 7.75-10.61 2.8-2.94 7.12-6.53 9.59-7.96 2.48-1.43 6.98-3.4 10-4.39 4.3-1.39 8.14-1.72 17.5-1.51zm-18.17 26.26c-1.22 1.63-2.92 4.65-3.77 6.71-0.86 2.06-1.56 4.43-1.56 5.25 0 1.28 2.95 1.5 20.5 1.5h20.5c-0.99-4.26-1.94-6.85-2.75-8.5-0.82-1.65-2.44-4.06-3.61-5.35-1.18-1.28-3.37-2.97-4.89-3.75-1.52-0.78-5.52-1.38-9-1.36-3.43 0.02-7.81 0.6-9.72 1.29-1.91 0.68-4.48 2.58-5.7 4.21zm123.17-26.26c11.1 0.25 12.49 0.51 18.5 3.4 4.29 2.06 8.38 5.11 12.03 8.97 3.03 3.22 6.72 8.33 8.18 11.35 1.46 3.02 3.36 8.43 4.21 12 0.86 3.57 1.56 9.54 1.58 20l-68.5-0.03 0.75 4.51c0.42 2.49 1.61 6.21 2.65 8.27 1.04 2.06 2.73 4.51 3.75 5.44 1.02 0.93 3.54 2.39 5.6 3.25 2.07 0.86 6.56 1.55 10 1.54 3.86-0.02 7.78-0.72 10.25-1.84 2.2-1 5.47-3.46 10.5-9.14h11.5c8.53 0 11.51 0.32 11.52 1.25 0.01 0.69-1.3 3.95-2.93 7.25-1.62 3.3-4.72 8.02-6.87 10.5-2.16 2.48-6.35 5.82-9.32 7.43-2.97 1.6-7.65 3.51-10.4 4.23-2.75 0.73-9.61 1.32-15.25 1.33-7.07 0.01-12.03-0.55-16-1.78-3.16-0.99-7.77-2.96-10.25-4.39-2.47-1.43-6.56-4.79-9.08-7.46-2.53-2.67-5.79-7.22-7.25-10.11-1.47-2.89-3.33-8.06-4.15-11.5-0.82-3.44-1.5-10.07-1.51-14.75-0.01-4.68 0.66-11.09 1.49-14.25 0.83-3.16 2.7-8.11 4.16-11 1.46-2.89 4.95-7.66 7.75-10.61 2.8-2.94 7.12-6.53 9.59-7.96 2.48-1.43 6.98-3.4 10-4.39 4.3-1.39 8.14-1.72 17.5-1.51zm-18.17 26.26c-1.22 1.63-2.92 4.65-3.77 6.71-0.86 2.06-1.56 4.43-1.56 5.25 0 1.28 2.95 1.5 20.5 1.5h20.5c-0.99-4.26-1.94-6.85-2.75-8.5-0.82-1.65-2.44-4.06-3.61-5.35-1.18-1.28-3.37-2.97-4.89-3.75-1.52-0.78-5.52-1.38-9-1.36-3.43 0.02-7.81 0.6-9.72 1.29-1.91 0.68-4.48 2.58-5.7 4.21zm235.42-26.49c8.13-0.04 12.85 0.45 17 1.74 3.17 0.99 7.78 2.96 10.25 4.39 2.48 1.43 6.57 4.79 9.09 7.46 2.52 2.67 5.79 7.22 7.25 10.11 1.47 2.89 3.34 7.84 4.17 11 0.83 3.17 1.5 10.01 1.5 15.25 0 5.24-0.67 12.08-1.5 15.25-0.83 3.16-2.7 8.11-4.17 11-1.46 2.89-4.73 7.44-7.25 10.11-2.52 2.67-6.61 6.03-9.09 7.46-2.47 1.43-7.08 3.4-10.25 4.39-3.99 1.24-9.02 1.8-16.5 1.81-7.92 0.02-12.46-0.5-17.25-1.96-3.57-1.09-8.52-3.27-11-4.83-2.47-1.56-6.41-4.84-8.75-7.28-2.34-2.45-5.35-6.47-6.69-8.95-1.35-2.48-3.2-7.42-4.14-11-1.01-3.9-1.69-10.29-1.69-16 0-5.71 0.68-12.1 1.69-16 0.94-3.57 2.91-8.69 4.39-11.36 1.48-2.68 4.72-6.9 7.19-9.38 2.48-2.48 6.53-5.67 9-7.09 2.48-1.43 6.98-3.37 10-4.33 3.8-1.2 8.98-1.75 16.75-1.79zm-15.55 27.71c-1.87 2.12-3.99 6.13-4.89 9.24-0.87 3.02-1.58 8.87-1.58 13 0 4.12 0.72 9.98 1.6 13 0.88 3.02 2.89 7.08 4.47 9 1.58 1.92 4.52 4.29 6.53 5.25 2.24 1.06 6.02 1.75 9.67 1.75 3.9 0 7.32-0.66 9.75-1.89 2.07-1.05 4.49-2.73 5.39-3.75 0.9-1.02 2.69-3.88 3.98-6.36 2.09-3.99 2.36-5.86 2.37-16.5 0.01-11.05-0.2-12.46-2.74-17.75-2.1-4.39-3.87-6.46-7.5-8.76-4.04-2.57-5.71-3.02-11.25-3-3.75 0.01-7.76 0.66-9.5 1.53-1.65 0.83-4.48 3.19-6.3 5.24zm246.8 40.24h30v29h-30z"/>
		<path id="Path 2" class="s2" d="m949.51 63.65c-0.46 0.38-0.77 68.78-0.68 152.02l0.17 151.33h56l0.5-31.85c8.14 9.96 13.76 15.44 17.75 18.6 3.99 3.17 10.85 7.62 15.25 9.9 4.4 2.28 11.6 5.27 16 6.65 4.4 1.38 11.83 3.07 16.5 3.74 5.29 0.76 14.16 1.03 23.5 0.72 11.53-0.39 17.2-1.09 24.5-3 5.22-1.37 13.33-4.01 18.02-5.87 4.69-1.87 12.54-5.87 17.44-8.89 5.77-3.56 12.5-9.03 19.05-15.5 5.87-5.8 12.46-13.57 15.69-18.5 3.07-4.68 6.92-11.2 8.57-14.5 1.64-3.3 4.57-10.27 6.51-15.5 1.95-5.23 4.79-14.9 6.31-21.5 2.45-10.56 2.78-14.03 2.81-29 0.03-12.48-0.44-19.39-1.76-26-0.99-4.95-3.17-13.28-4.83-18.5-1.67-5.23-4.74-13.1-6.83-17.5-2.1-4.4-6.02-11.38-8.72-15.5-2.7-4.13-7.58-10.63-10.84-14.45-3.25-3.82-9.29-9.82-13.42-13.33-4.12-3.51-10.87-8.48-15-11.04-4.12-2.56-11.44-6.35-16.25-8.42-4.81-2.07-13.36-4.91-19-6.31-7.19-1.79-14.28-2.73-23.75-3.15-10.44-0.46-15.88-0.19-24 1.17-5.78 0.96-13.76 2.83-17.75 4.14-3.99 1.32-10.06 3.79-13.5 5.51-3.44 1.71-8.95 5.02-12.25 7.35-3.3 2.33-8.14 6.55-10.75 9.38l-4.75 5.15-0.5-77.5c-45.83-0.41-59.52-0.22-59.99 0.15zm287.5 151.34l-0.01 152.01h55v-33c5.96 7.36 10.79 12.44 14.59 16.03 3.8 3.59 10.06 8.43 13.91 10.74 3.85 2.32 10.38 5.53 14.5 7.15 4.13 1.61 12.11 3.87 17.75 5.01 7.28 1.47 14.09 2.07 23.5 2.08 7.54 0.01 17.13-0.66 22.25-1.55 4.95-0.86 12.94-2.89 17.75-4.51 4.81-1.62 12.24-4.71 16.5-6.86 4.26-2.15 11.13-6.29 15.25-9.21 4.13-2.92 10.2-8.02 13.51-11.34 3.3-3.32 8.07-8.74 10.59-12.04 2.53-3.3 6.69-9.6 9.26-14 2.57-4.4 6.53-12.73 8.79-18.5 2.26-5.77 5.48-15.68 7.16-22 2.92-10.98 3.06-12.43 3.12-32 0.06-16.21-0.31-22.28-1.75-29-0.99-4.68-3.08-12.33-4.63-17-1.55-4.68-4.41-11.88-6.35-16-1.95-4.13-6.27-11.66-9.62-16.75-3.34-5.09-9.79-13.13-14.33-17.87-4.54-4.73-11.62-11.15-15.75-14.26-4.12-3.11-11.55-7.75-16.5-10.31-4.95-2.57-13.05-6.03-18-7.69-4.95-1.67-13.5-3.77-19-4.68-7.48-1.23-13.53-1.51-24-1.09-9.07 0.35-16.91 1.27-22.25 2.6-4.54 1.13-11.74 3.38-16 5-4.26 1.62-11.12 5.17-15.25 7.88-4.12 2.71-10.2 7.7-13.5 11.08l-6 6.15-1-77.56-59.47-0.53zm289.98 0.02v152h60v-304h-60z"/>
		<path id="Path 3" class="s3" d="m854 475.25c0 16.64 0.48 34.07 1.07 38.75 0.59 4.67 2.05 10.71 3.25 13.42 1.2 2.71 4.01 6.53 6.25 8.5 2.33 2.05 6.6 4.39 10 5.47 4.72 1.5 7.97 1.79 15.93 1.43 7.9-0.36 11.05-0.96 15-2.87 2.75-1.33 6.69-4.12 8.75-6.19l3.75-3.76v10h26v-95h-27.22c-0.28 62.47-0.28 62.5-2.78 67.45-1.38 2.72-3.77 5.87-5.33 7-2.05 1.49-4.79 2.15-10 2.43-6.78 0.36-7.36 0.22-10.67-2.61-1.92-1.65-4.13-4.75-4.91-6.88-1.07-2.96-1.48-11.51-1.72-35.64l-0.31-31.75h-27.06z"/>
		<path id="Path 4" class="s0" d="m273 474.5v65.5h27v-131h-27zm192-29.3c-3.12 1.24-7.55 4.16-10.23 6.74l-4.73 4.56-0.04-11.5h-26v95h27c0.03-39.14 0.5-53.65 1.07-57.5 0.56-3.85 2.01-8.76 3.23-10.9 1.21-2.15 3.77-4.73 5.7-5.75 2.26-1.2 5.62-1.87 9.5-1.88 4.61-0.02 6.81 0.51 9.5 2.28 2.51 1.64 3.98 3.71 5.21 7.27 1.46 4.26 1.71 9.43 1.75 35.73l0.04 30.75h27c-0.53-60.44-1.04-74.74-1.77-77-0.62-1.93-2.61-5.74-4.43-8.48-2.46-3.7-4.81-5.75-9.22-8-5.4-2.75-6.9-3.04-17-3.26-9.41-0.2-11.91 0.09-16.58 1.94zm278 80.3v14.5h30v-29h-30z"/>
		<path id="Path 5" class="s1" d="m1357 167.63c-1.38 0.27-5.88 1.39-10 2.5-4.13 1.11-10.88 3.78-15 5.94-4.13 2.16-10.15 6.06-13.4 8.68-3.24 2.61-8.09 7.68-10.77 11.25-2.69 3.57-6.19 9.2-7.78 12.5-1.59 3.3-3.68 8.93-4.64 12.5-1.2 4.45-1.75 10.12-1.73 18 0.02 8.13 0.63 13.99 2.08 20 1.14 4.68 3.15 10.98 4.47 14 1.32 3.02 4.23 8.2 6.47 11.5 2.23 3.3 6.48 8.36 9.43 11.24 2.95 2.88 7.17 6.46 9.37 7.94 2.2 1.49 7.15 4.14 11 5.9 3.85 1.76 10.26 3.92 14.25 4.81 4.14 0.92 11.75 1.61 17.75 1.61 6 0 13.61-0.69 17.75-1.61 3.99-0.89 10.4-3.07 14.25-4.85 3.85-1.78 9.88-5.44 13.4-8.14 3.53-2.69 8.18-7.15 10.35-9.9 2.16-2.75 5.42-7.7 7.23-11 1.81-3.3 4.23-8.93 5.37-12.5 1.15-3.57 2.55-9.43 3.11-13 0.56-3.57 1.03-9.31 1.03-12.75 0.01-3.44-0.5-9.51-1.12-13.5-0.62-3.99-2.21-10.4-3.53-14.25-1.32-3.85-4.26-10.15-6.53-14-2.28-3.85-7.12-9.93-10.77-13.5-3.64-3.57-9.53-8.2-13.08-10.28-3.55-2.07-10.06-4.94-14.46-6.36-6.39-2.07-10.41-2.65-20-2.9-6.6-0.17-13.12-0.1-14.5 0.17zm-209.03 242.3c-1.39 0.41-4.32 1.66-6.5 2.77-2.18 1.11-5.45 3.76-7.25 5.91-1.8 2.14-3.94 6.14-4.76 8.89-0.81 2.75-1.48 7.81-1.47 11.25l0.01 6.25h-15v17h15v78h27v-78h18v-17h-18c0.69-10.37 1.23-11.85 3.13-13.29 1.75-1.33 4.13-1.78 9.12-1.75l6.75 0.04v-21c-18.21 0.13-24.64 0.51-26.03 0.93zm78.03 34.9c-2.47 0.96-6.05 2.85-7.93 4.2-1.89 1.36-4.94 4.49-6.78 6.97l-3.35 4.5 0.06-15.5h-26v95h27c0.01-33.71 0.46-46.31 1.01-49.75 0.54-3.44 1.85-7.94 2.9-10 1.05-2.06 3.19-4.96 4.75-6.45 1.56-1.48 4.53-3.39 6.59-4.25 2.32-0.96 6.79-1.55 11.75-1.55h8v-25c-10.66 0.07-15.39 0.83-18 1.83zm501.81-0.9c-1.49 0.42-4.07 1.51-5.75 2.42-1.69 0.91-4.88 3.34-7.11 5.4l-4.04 3.75 0.09-10.5h-26v95h27c0.04-44.56 0.47-59.3 0.99-61.5 0.52-2.2 1.79-5.13 2.82-6.5 1.03-1.38 3.41-3.53 5.28-4.78 2.51-1.68 4.86-2.28 8.91-2.28 4.21-0.01 6.18 0.52 8.43 2.28 1.61 1.25 3.52 3.74 4.25 5.53 1 2.46 1.32 11.02 1.32 35.25v32h27c0.5-62.39 0.51-62.52 3-67.38 1.38-2.68 3.85-5.7 5.5-6.72 1.99-1.22 5.02-1.86 9-1.9 4.54-0.05 6.67 0.43 8.75 1.97 1.51 1.11 3.54 3.49 4.5 5.28 1.54 2.87 1.77 7.05 2 36l0.25 32.75h27c-0.53-71.66-0.65-73.78-2.7-79-1.44-3.68-3.76-6.99-7.02-10-3.32-3.07-6.77-5.1-10.83-6.39-4.68-1.48-8.09-1.8-15.95-1.48-8.89 0.35-10.56 0.72-15 3.35-2.75 1.62-6.6 4.54-8.55 6.48l-3.55 3.54c-7.48-8.11-10.58-10.27-14.15-11.58-3.79-1.39-7.68-1.9-14-1.83-4.81 0.04-9.96 0.43-11.44 0.84z"/>
		<path id="Path 6" fill-rule="evenodd" class="s2" d="m154.25 108.12c4.81-0.07 12.01 0.51 16 1.29 3.99 0.77 10.4 2.59 14.25 4.04 3.85 1.45 10.15 4.51 14 6.81 3.85 2.29 10.31 7.33 14.36 11.2 4.04 3.87 9.28 9.97 11.64 13.54 2.36 3.57 5.42 9.2 6.8 12.5 1.38 3.3 3.23 9.49 4.11 13.75 0.87 4.26 1.59 9.1 1.59 13.75h-29.5c-27.22 0-29.54-0.14-30.05-1.75-0.3-0.96-1.36-3.32-2.35-5.25-0.99-1.93-4.01-4.97-6.7-6.76-3.45-2.3-6.53-3.44-10.4-3.86-3.04-0.32-7.51-0.07-10 0.58-2.47 0.63-6.19 2.26-8.25 3.6-2.06 1.34-4.65 4.24-5.75 6.44-1.29 2.58-2.01 6.05-2.03 9.75-0.02 4.36 0.53 6.6 2.28 9.25 1.27 1.93 4.32 4.85 6.78 6.51 2.87 1.93 11.28 5.1 23.47 8.83 10.45 3.21 23.72 7.71 29.5 10.01 5.78 2.3 14.09 6.43 18.48 9.17 4.39 2.74 10.8 7.79 14.25 11.23 4.25 4.24 7.39 8.58 9.76 13.5 1.92 3.99 4.27 10.18 5.22 13.75 1.26 4.71 1.71 10.07 1.64 19.5-0.08 9.94-0.61 14.88-2.26 21-1.19 4.4-3.7 11.15-5.58 15-1.87 3.85-5.83 10.15-8.78 14-2.96 3.85-8.32 9.48-11.91 12.5-3.6 3.02-10.09 7.52-14.43 9.99-4.34 2.47-13.07 6.3-30.89 12.5h-17c-13.56 0.01-18.42-0.37-24-1.88-3.85-1.04-10.37-3.32-14.5-5.05-4.12-1.74-10.42-5.13-14-7.54-3.58-2.42-9.23-7.12-12.56-10.46-3.34-3.33-8.03-8.99-10.44-12.56-2.4-3.57-5.41-8.86-6.68-11.75-1.28-2.89-3.41-8.96-4.74-13.5-1.32-4.54-2.79-11.74-4.08-23.77l62.5 0.02 0.62 3.25c0.35 1.79 1.65 5.27 2.9 7.75 1.25 2.48 4.23 6.43 6.63 8.78 2.5 2.46 6.59 5.12 9.6 6.25 2.96 1.11 7.76 1.98 11 1.98 3.16 0.01 8-0.67 10.75-1.5 2.75-0.83 6.72-2.75 8.82-4.26 2.22-1.6 4.85-4.85 6.26-7.75 1.63-3.32 2.43-6.68 2.41-10-0.02-2.75-0.85-6.8-1.86-9-1-2.2-3.69-5.69-5.97-7.75-2.29-2.06-6.86-5.1-10.16-6.75-3.3-1.65-14.89-5.93-25.75-9.52-10.86-3.58-22.9-8.08-26.75-9.99-3.85-1.9-10.6-6.31-15-9.77-4.4-3.47-10.2-9.22-12.9-12.77-2.69-3.55-5.94-8.7-7.21-11.45-1.28-2.75-3.25-8.6-4.37-13-1.33-5.19-2.04-11.16-2.02-17 0.01-5.54 0.8-12.27 2.05-17.5 1.12-4.68 3.58-11.65 5.47-15.5 1.89-3.85 5.9-10.04 8.91-13.76 3.02-3.71 8.09-8.8 11.28-11.3 3.18-2.49 8.49-6.06 11.79-7.93 3.3-1.86 10.05-4.75 15-6.41 4.95-1.66 11.47-3.44 14.5-3.94 3.03-0.51 9.44-0.98 14.25-1.04zm235.25 0.31c8.86 0.25 15.23 0.99 20 2.32 3.85 1.08 9.93 3.17 13.5 4.66 3.57 1.49 9.43 4.66 13 7.06 3.57 2.39 9.21 7.2 12.53 10.69 3.32 3.49 7.2 7.91 11.21 13.34l4.37-5c2.4-2.75 6.4-6.93 8.88-9.3 2.48-2.36 6.99-5.94 10.01-7.95 3.02-2 8.88-5.19 13-7.08 4.13-1.89 11.77-4.59 17-5.99 8.6-2.32 11.26-2.56 28-2.54 16.77 0.02 19.43 0.27 28.5 2.67 5.5 1.45 14.5 4.87 20 7.58 5.67 2.8 13.01 7.47 16.93 10.78 3.82 3.21 9.89 9.48 13.5 13.95 3.61 4.47 8.21 11.44 10.21 15.5 2 4.06 4.81 11.09 6.25 15.63 1.43 4.54 3.28 13.43 4.11 19.75 1.23 9.4 1.5 26.22 1.5 172.5h-61l-0.28-80.75c-0.27-77.48-0.36-81.01-2.28-87.25-1.1-3.57-3.17-8.53-4.6-11-1.44-2.47-4.8-6.5-7.47-8.95-2.68-2.45-7.57-5.72-10.87-7.27-3.3-1.55-9.37-3.34-13.5-3.98-5.74-0.89-9.26-0.88-15 0.04-4.23 0.67-10.56 2.64-14.5 4.51-4.19 1.98-9.1 5.38-12.25 8.48-3.29 3.24-6.55 7.87-8.75 12.42-1.92 3.99-4.25 10.4-5.17 14.25-1.47 6.16-1.71 16.15-2.33 159.5h-60l-0.36-77.25c-0.32-67.93-0.56-78.09-2.04-84.25-0.92-3.85-3.21-9.93-5.09-13.5-1.95-3.71-5.8-8.76-8.96-11.75-3.05-2.89-8.36-6.59-11.8-8.23-3.44-1.63-9.62-3.51-13.75-4.18-5.87-0.94-9.24-0.93-15.5 0.02-4.4 0.67-10.65 2.44-13.88 3.93-3.53 1.62-7.77 4.71-10.59 7.71-2.59 2.75-5.97 7.47-7.49 10.5-1.53 3.03-3.59 8.65-4.58 12.5-0.99 3.85-2.28 12.4-2.87 19-0.63 7.07-1.07 39.44-1.09 145.5h-61v-251h56l-0.08 21.5 6.41-7c3.65-3.99 9.15-8.62 12.79-10.76 3.51-2.06 9.98-4.94 14.38-6.4 4.4-1.45 11.15-3.24 15-3.96 4.38-0.83 11.86-1.18 20-0.95zm409 0.05c11.08 0.28 18.61 1.02 24.5 2.38 4.67 1.09 11.88 3.18 16 4.67 4.13 1.48 11.55 4.77 16.5 7.32 4.95 2.55 12.6 7.28 17 10.52 4.4 3.24 11.77 9.77 16.37 14.51 4.6 4.74 11.07 12.67 14.37 17.62 3.3 4.95 7.57 12.15 9.5 16 1.93 3.85 5 11.5 6.82 17 1.82 5.5 4.03 13.6 4.93 18 0.89 4.4 1.88 12.95 2.2 19 0.33 6.12 0.07 15.43-0.57 21-0.63 5.5-2.3 14.27-3.7 19.5-1.4 5.23-4.04 13.1-5.86 17.5-1.83 4.4-5.45 11.6-8.06 16-2.6 4.4-6.81 10.7-9.35 14-2.54 3.3-7.55 8.95-11.14 12.55-3.58 3.61-10.11 9.24-14.51 12.52-4.4 3.27-10.92 7.6-14.5 9.61-3.58 2.01-10.33 5.2-15 7.1-4.67 1.9-13.23 4.69-19 6.2-8.83 2.31-13.21 2.83-27.5 3.24-13.1 0.38-19.18 0.12-26.5-1.15-5.23-0.91-14-3.15-19.5-4.99-5.5-1.83-12.92-4.79-16.5-6.56-3.58-1.78-10.1-5.63-14.5-8.54-4.4-2.92-10.92-7.84-14.5-10.94-3.58-3.1-9.32-8.88-12.76-12.84-3.45-3.96-8.38-10.35-10.96-14.2-2.59-3.85-6.58-10.82-8.88-15.5-2.3-4.68-5.54-12.77-7.19-18-1.65-5.23-3.73-13.77-4.61-19-0.89-5.23-1.61-14.68-1.6-21 0-6.32 0.66-15.55 1.47-20.5 0.8-4.95 2.62-13.05 4.04-18 1.43-4.95 4.98-13.95 7.9-20 2.91-6.05 7.88-14.6 11.03-19 3.15-4.4 9.18-11.52 13.4-15.82 4.21-4.3 10.81-10.18 14.66-13.08 3.85-2.9 10.15-7.12 14-9.39 3.85-2.26 10.15-5.45 14-7.09 3.85-1.63 11.05-4.15 16-5.6 4.95-1.45 12.83-3.27 17.5-4.05 5.8-0.96 13.58-1.28 24.5-0.99zm947-0.38c6.05-0.05 15.16 0.58 20.25 1.4 5.09 0.83 12.96 2.67 17.5 4.1 4.54 1.44 11.4 4.05 15.25 5.8 3.85 1.76 10.83 5.68 15.5 8.72 4.67 3.04 11.63 8.2 15.45 11.45 3.82 3.26 10.13 9.75 14.02 14.43 3.88 4.68 9.3 12.1 12.04 16.5 2.73 4.4 6.71 12.05 8.85 17 2.13 4.95 5.21 14.18 6.85 20.5 2.3 8.9 3.1 14.55 3.51 25 0.32 8.01 0.06 17.16-0.65 22.5-0.65 4.95-1.38 10.01-2.07 13.5h-194l0.61 2.25c0.34 1.24 2.25 5.39 4.25 9.23 2 3.84 6.34 9.88 9.64 13.42 3.3 3.54 9.15 8.51 13 11.05 4.02 2.65 10.83 5.87 16 7.58 8.28 2.73 10.11 2.97 23 2.94 11.47-0.03 15.45-0.44 22-2.3 4.4-1.25 11.15-3.81 15-5.69 3.85-1.87 9.59-5.67 18.5-13.48h33c21.33 0 33 0.35 33 1 0 0.55-1.48 4.26-3.3 8.25-1.81 3.99-5.52 10.62-8.25 14.75-2.72 4.12-9.45 12.02-14.95 17.54-5.5 5.52-13.83 12.57-18.5 15.68-4.67 3.11-12.55 7.66-17.5 10.11-4.95 2.45-13.28 5.82-18.5 7.48-5.22 1.67-13.55 3.79-18.5 4.72-7.07 1.33-12.55 1.59-25.5 1.2-14.1-0.42-18.17-0.93-28-3.5-6.33-1.66-15.55-4.76-20.5-6.91-4.95-2.15-13.61-6.92-19.25-10.61-5.64-3.69-14.13-10.42-18.87-14.96-4.74-4.54-11.5-12.07-15.02-16.75-3.53-4.68-8.86-13.45-11.86-19.5-2.99-6.05-6.59-14.6-7.99-19-1.41-4.4-3.23-11.6-4.05-16-0.81-4.4-1.75-12.72-2.08-18.5-0.4-7.08-0.08-14.4 0.98-22.5 0.87-6.6 2.91-16.5 4.54-22 1.62-5.5 4.59-13.6 6.59-18 2.01-4.4 5.27-10.7 7.25-14 1.98-3.3 6.38-9.6 9.77-14 3.4-4.4 9.73-11.3 14.08-15.33 4.35-4.04 11.51-9.75 15.91-12.69 4.4-2.94 12.28-7.38 17.5-9.85 5.22-2.48 13.55-5.69 18.5-7.13 4.95-1.44 12.83-3.22 17.5-3.96 4.67-0.74 13.45-1.39 19.5-1.44zm-21 62.38c-3.3 0.95-8.92 3.21-12.5 5.01-3.58 1.81-9.39 5.47-12.93 8.15-3.53 2.67-8.42 7.33-10.87 10.36-2.44 3.03-5.96 8.54-7.82 12.25-1.86 3.71-3.38 7.2-3.38 7.75 0 0.66 23.5 1 68.5 1h68.5c-0.95-3.49-2.86-7.62-4.86-11.43-2-3.81-6.56-10.05-10.14-13.87-3.58-3.81-9.65-8.88-13.5-11.25-3.85-2.37-9.36-5.24-12.25-6.38-2.89-1.14-9.19-2.75-14-3.58-4.81-0.83-11.22-1.45-14.25-1.38-3.03 0.07-7.53 0.46-10 0.88-2.47 0.41-7.2 1.53-10.5 2.49z"/>
		<path id="Path 7" class="s3" d="m1066 168.52c-3.58 0.74-9.2 2.28-12.5 3.44-3.3 1.16-9.15 3.96-13 6.23-3.85 2.27-10.4 7.54-14.56 11.72-5.99 6-8.55 9.57-12.28 17.09-2.68 5.41-5.39 12.73-6.28 17-1.16 5.49-1.44 10.58-1.04 19 0.34 7.19 1.34 14.31 2.67 19 1.17 4.12 3.42 10.2 4.99 13.5 1.57 3.3 5.06 8.93 7.75 12.5 2.7 3.57 6.89 8.23 9.33 10.33 2.43 2.11 7.34 5.58 10.92 7.7 3.58 2.12 10.1 5.1 14.5 6.62 7.42 2.57 9.16 2.78 24 2.81 15.11 0.04 16.5-0.13 25-2.93 5.16-1.7 11.99-4.94 16-7.58 3.85-2.53 9.47-7.3 12.5-10.6 3.03-3.3 7.2-8.89 9.28-12.42 2.07-3.54 4.94-10.03 6.37-14.43 2.06-6.34 2.71-10.7 3.11-21 0.31-8.05 0.05-15.67-0.7-20-0.67-3.85-2.52-10.38-4.12-14.5-1.6-4.13-4.68-10.2-6.84-13.5-2.16-3.3-6.11-8.2-8.77-10.89-2.65-2.69-7.53-6.71-10.83-8.94-3.3-2.22-8.7-5.13-12-6.46-3.3-1.33-9.26-3.04-13.25-3.81-3.99-0.77-10.96-1.36-15.5-1.31-4.54 0.06-11.17 0.7-14.75 1.43zm-247.03 241.41c-1.39 0.41-4.32 1.66-6.5 2.77-2.18 1.11-5.45 3.76-7.25 5.91-1.8 2.14-3.94 6.14-4.76 8.89-0.81 2.75-1.48 7.81-1.47 11.25l0.01 6.25h-15v17h15v78h27v-78h18v-17h-18c0.69-10.37 1.23-11.85 3.13-13.29 1.75-1.33 4.13-1.78 9.12-1.75l6.75 0.04v-21c-18.21 0.13-24.64 0.51-26.03 0.93zm184.03 35.27c-3.12 1.24-7.55 4.16-10.23 6.74l-4.73 4.56-0.04-11.5h-26v95h27c0.03-39.14 0.5-53.65 1.07-57.5 0.56-3.85 2.01-8.76 3.23-10.9 1.21-2.15 3.78-4.73 5.7-5.75 2.26-1.2 5.62-1.87 9.5-1.88 4.61-0.02 6.81 0.51 9.5 2.28 2.51 1.64 3.98 3.71 5.21 7.27 1.46 4.26 1.71 9.43 1.75 35.73l0.04 30.75h27c-0.53-60.44-1.04-74.74-1.77-77-0.62-1.93-2.61-5.74-4.43-8.48-2.46-3.7-4.81-5.75-9.22-8-5.4-2.75-6.9-3.04-17-3.26-9.41-0.2-11.91 0.09-16.58 1.94zm69 80.3v14.5h30v-29h-30z"/>
		<path id="Path 8" class="s0" d="m779.5 168.45c-3.3 0.71-9.15 2.61-13 4.22-3.85 1.61-9.92 4.9-13.5 7.32-3.58 2.41-8.75 6.67-11.5 9.46-2.75 2.78-6.4 7.08-8.12 9.56-1.71 2.47-4.3 6.85-5.75 9.74-1.44 2.89-3.61 8.74-4.82 13-1.69 5.99-2.19 10.48-2.2 19.75-0.01 8.46 0.52 14.06 1.81 19 1.01 3.85 3.04 9.7 4.51 13 1.47 3.3 4.21 8.25 6.08 11 1.88 2.75 5.45 7.2 7.95 9.88 2.5 2.68 7.02 6.56 10.04 8.61 3.02 2.05 7.98 4.98 11 6.49 3.02 1.52 8.88 3.62 13 4.65 4.95 1.25 10.98 1.89 17.75 1.88 5.64 0 13.51-0.72 17.5-1.59 3.99-0.88 11.52-3.64 16.75-6.16 8.04-3.86 10.81-5.89 18.03-13.16 6.67-6.73 9.45-10.45 12.76-17.1 2.33-4.68 5.14-12.1 6.23-16.5 1.42-5.68 2-11.34 2-19.5 0-8.36-0.56-13.69-2.06-19.5-1.13-4.4-3.82-11.37-5.98-15.5-2.15-4.12-6.31-10.43-9.23-14-2.92-3.57-8.22-8.6-11.78-11.17-3.56-2.57-9.85-6.26-13.97-8.2-4.13-1.94-10.99-4.22-15.25-5.08-4.26-0.85-11.01-1.51-15-1.47-3.99 0.04-9.95 0.66-13.25 1.37z"/>
	</g>
</svg>