<svg width="100" height="33" viewBox="0 0 100 33" fill="none" xmlns="http://www.w3.org/2000/svg">
<g clip-path="url(#clip0_35_6180)">
<path fill-rule="evenodd" clip-rule="evenodd" d="M4.64796 9.57843C3.57242 8.50289 3.57242 6.75915 4.64796 5.68361C5.72351 4.60807 7.46737 4.60807 8.54278 5.68361C9.61833 6.75915 9.61833 8.50289 8.54278 9.57843C7.46737 10.654 5.72351 10.654 4.64796 9.57843Z" fill="#171B1F"/>
<path fill-rule="evenodd" clip-rule="evenodd" d="M2.7541 19.6596C1.23305 19.6596 0 18.4265 0 16.9055C0 15.3843 1.23305 14.1514 2.7541 14.1514C4.27515 14.1514 5.5082 15.3843 5.5082 16.9055C5.5082 18.4265 4.27515 19.6596 2.7541 19.6596Z" fill="#171B1F"/>
<path fill-rule="evenodd" clip-rule="evenodd" d="M8.54279 28.1263C7.46725 29.2017 5.72338 29.2017 4.64796 28.1263C3.57242 27.0508 3.57242 25.3069 4.64796 24.2314C5.72338 23.156 7.46725 23.156 8.54279 24.2314C9.61833 25.3069 9.61833 27.0508 8.54279 28.1263Z" fill="#171B1F"/>
<path fill-rule="evenodd" clip-rule="evenodd" d="M18.6231 30.0197C18.6231 31.5408 17.39 32.7738 15.869 32.7738C14.3479 32.7738 13.1149 31.5408 13.1149 30.0197C13.1149 28.4985 14.3479 27.2656 15.869 27.2656C17.39 27.2656 18.6231 28.4985 18.6231 30.0197Z" fill="#171B1F"/>
<path fill-rule="evenodd" clip-rule="evenodd" d="M27.09 24.2314C28.1656 25.3069 28.1656 27.0508 27.09 28.1263C26.0145 29.2017 24.2706 29.2017 23.1952 28.1263C22.1197 27.0508 22.1197 25.3069 23.1952 24.2314C24.2706 23.156 26.0145 23.156 27.09 24.2314Z" fill="#171B1F"/>
<path fill-rule="evenodd" clip-rule="evenodd" d="M28.9838 14.1514C30.5049 14.1514 31.7379 15.3843 31.7379 16.9055C31.7379 18.4265 30.5049 19.6596 28.9838 19.6596C27.4628 19.6596 26.2297 18.4265 26.2297 16.9055C26.2297 15.3843 27.4628 14.1514 28.9838 14.1514Z" fill="#171B1F"/>
<path fill-rule="evenodd" clip-rule="evenodd" d="M22.5988 8.68608C21.6808 6.46982 19.14 5.41736 16.9237 6.3354C15.5183 6.91756 13.9073 6.25015 13.3253 4.8449C12.7431 3.43966 13.4105 1.82851 14.8158 1.24648C16.221 0.664444 17.832 1.33172 18.4142 2.73697C19.3322 4.95336 21.8732 6.00582 24.0896 5.08779C25.4948 4.50576 27.1057 5.17303 27.6878 6.57828C28.2698 7.98353 27.6025 9.59454 26.1973 10.1766C24.792 10.7587 23.1809 10.0915 22.5988 8.68608Z" fill="#171B1F"/>
<path fill-rule="evenodd" clip-rule="evenodd" d="M52.7904 23.4014H55.2822V10.418H52.7904V23.4014Z" fill="#171B1F"/>
<path fill-rule="evenodd" clip-rule="evenodd" d="M55.6755 7.41278C55.6755 8.31822 54.9416 9.05213 54.0362 9.05213C53.1309 9.05213 52.3969 8.31822 52.3969 7.41278C52.3969 6.50747 53.1309 5.77344 54.0362 5.77344C54.9416 5.77344 55.6755 6.50747 55.6755 7.41278Z" fill="#171B1F"/>
<path fill-rule="evenodd" clip-rule="evenodd" d="M50.1029 23.402H42.0372C40.9358 23.402 39.9885 22.7305 39.6239 21.6912C39.2593 20.6518 39.5795 19.5357 40.4395 18.8476L47.7156 13.0266C47.7413 13.0059 47.7519 12.9975 47.7366 12.9537C47.7211 12.9098 47.7075 12.9098 47.6747 12.9098H39.609V10.418H47.6747C48.776 10.418 49.7233 11.0894 50.0879 12.1288C50.4525 13.1681 50.1324 14.2843 49.2723 14.9723L41.9962 20.7933C41.9705 20.814 41.9599 20.8224 41.9753 20.8662C41.9907 20.9102 42.0042 20.9102 42.0372 20.9102H50.1029V23.402Z" fill="#171B1F"/>
<path fill-rule="evenodd" clip-rule="evenodd" d="M72.4625 23.4014H74.9543V10.418H72.4625V23.4014Z" fill="#171B1F"/>
<path fill-rule="evenodd" clip-rule="evenodd" d="M75.3477 7.41278C75.3477 8.31822 74.6138 9.05213 73.7083 9.05213C72.803 9.05213 72.069 8.31822 72.069 7.41278C72.069 6.50747 72.803 5.77344 73.7083 5.77344C74.6138 5.77344 75.3477 6.50747 75.3477 7.41278Z" fill="#171B1F"/>
<path fill-rule="evenodd" clip-rule="evenodd" d="M67.2624 23.4077L67.2182 14.2929C67.2182 13.5275 66.6005 12.9098 65.8411 12.9098H61.9067C61.1475 12.9098 60.5296 13.5275 60.5296 14.2868V23.4017H58.0378V14.2868C58.0378 12.1536 59.7733 10.418 61.9067 10.418H65.8411C67.9744 10.418 69.71 12.1536 69.71 14.2868L69.7542 23.3957L67.2624 23.4077Z" fill="#171B1F"/>
<path fill-rule="evenodd" clip-rule="evenodd" d="M80.2023 15.6639H85.5137C86.2731 15.6639 86.8908 15.0462 86.8908 14.2868C86.8908 13.5275 86.2731 12.9098 85.5137 12.9098H81.5793C80.82 12.9098 80.2023 13.5275 80.2023 14.2868V15.6639ZM88.1367 23.4017H81.5793C79.4461 23.4017 77.7104 21.6662 77.7104 19.5329V14.2868C77.7104 12.1534 79.4461 10.418 81.5793 10.418H85.5137C87.6471 10.418 89.3826 12.1534 89.3826 14.2868C89.3826 16.4202 87.6471 18.1557 85.5137 18.1557H80.2023V19.5329C80.2023 20.2922 80.82 20.9099 81.5793 20.9099H88.1367V23.4017Z" fill="#171B1F"/>
<path fill-rule="evenodd" clip-rule="evenodd" d="M94.3006 23.4017H91.8088V14.2868C91.8088 12.1534 93.5444 10.418 95.6777 10.418H99.6121V12.9098H95.6777C94.9183 12.9098 94.3006 13.5275 94.3006 14.2868V23.4017Z" fill="#171B1F"/>
</g>
<defs>
<clipPath id="clip0_35_6180">
<rect width="99.6721" height="32" fill="white" transform="translate(0 0.905273)"/>
</clipPath>
</defs>
</svg>
